<svg width="363" height="360" viewBox="0 0 363 360" fill="none" xmlns="http://www.w3.org/2000/svg">
<path d="M32.543 205.349H27.1729V211H25.4854V198.203H33.4131V199.592H27.1729V203.969H32.543V205.349ZM36.9463 211H35.3203V201.49H36.9463V211ZM35.1885 198.968C35.1885 198.704 35.2676 198.481 35.4258 198.3C35.5898 198.118 35.8301 198.027 36.1465 198.027C36.4629 198.027 36.7031 198.118 36.8672 198.3C37.0312 198.481 37.1133 198.704 37.1133 198.968C37.1133 199.231 37.0312 199.451 36.8672 199.627C36.7031 199.803 36.4629 199.891 36.1465 199.891C35.8301 199.891 35.5898 199.803 35.4258 199.627C35.2676 199.451 35.1885 199.231 35.1885 198.968ZM44.1533 202.949C43.9072 202.908 43.6406 202.888 43.3535 202.888C42.2871 202.888 41.5635 203.342 41.1826 204.25V211H39.5566V201.49H41.1387L41.165 202.589C41.6982 201.739 42.4541 201.314 43.4326 201.314C43.749 201.314 43.9893 201.355 44.1533 201.438V202.949ZM51.1934 208.478C51.1934 208.038 51.0264 207.698 50.6924 207.458C50.3643 207.212 49.7871 207.001 48.9609 206.825C48.1406 206.649 47.4873 206.438 47.001 206.192C46.5205 205.946 46.1631 205.653 45.9287 205.313C45.7002 204.974 45.5859 204.569 45.5859 204.101C45.5859 203.321 45.9141 202.662 46.5703 202.123C47.2324 201.584 48.0762 201.314 49.1016 201.314C50.1797 201.314 51.0527 201.593 51.7207 202.149C52.3945 202.706 52.7314 203.418 52.7314 204.285H51.0967C51.0967 203.84 50.9062 203.456 50.5254 203.134C50.1504 202.812 49.6758 202.65 49.1016 202.65C48.5098 202.65 48.0469 202.779 47.7129 203.037C47.3789 203.295 47.2119 203.632 47.2119 204.048C47.2119 204.44 47.3672 204.736 47.6777 204.936C47.9883 205.135 48.5479 205.325 49.3564 205.507C50.1709 205.688 50.8301 205.905 51.334 206.157C51.8379 206.409 52.21 206.714 52.4502 207.071C52.6963 207.423 52.8193 207.854 52.8193 208.363C52.8193 209.213 52.4795 209.896 51.7998 210.411C51.1201 210.921 50.2383 211.176 49.1543 211.176C48.3926 211.176 47.7188 211.041 47.1328 210.771C46.5469 210.502 46.0869 210.127 45.7529 209.646C45.4248 209.16 45.2607 208.636 45.2607 208.073H46.8867C46.916 208.618 47.1328 209.052 47.5371 209.374C47.9473 209.69 48.4863 209.849 49.1543 209.849C49.7695 209.849 50.2617 209.726 50.6309 209.479C51.0059 209.228 51.1934 208.894 51.1934 208.478ZM57.1436 199.188V201.49H58.9189V202.747H57.1436V208.645C57.1436 209.025 57.2227 209.312 57.3809 209.506C57.5391 209.693 57.8086 209.787 58.1895 209.787C58.377 209.787 58.6348 209.752 58.9629 209.682V211C58.5352 211.117 58.1191 211.176 57.7148 211.176C56.9883 211.176 56.4404 210.956 56.0713 210.517C55.7021 210.077 55.5176 209.453 55.5176 208.645V202.747H53.7861V201.49H55.5176V199.188H57.1436ZM70.9072 198.203H72.6035V207.265C72.6035 208.489 72.2344 209.447 71.4961 210.139C70.7637 210.83 69.7852 211.176 68.5605 211.176C67.2891 211.176 66.2988 210.851 65.5898 210.2C64.8809 209.55 64.5264 208.639 64.5264 207.467H66.2139C66.2139 208.199 66.4131 208.771 66.8115 209.181C67.2158 209.591 67.7988 209.796 68.5605 209.796C69.2578 209.796 69.8203 209.576 70.248 209.137C70.6816 208.697 70.9014 208.082 70.9072 207.291V198.203ZM82.3506 207.66H76.9893L75.7852 211H74.0449L78.9316 198.203H80.4082L85.3037 211H83.5723L82.3506 207.66ZM77.499 206.271H81.8496L79.6699 200.286L77.499 206.271ZM90.4893 208.759L94.1455 198.203H95.9912L91.2451 211H89.751L85.0137 198.203H86.8506L90.4893 208.759ZM104.112 207.66H98.751L97.5469 211H95.8066L100.693 198.203H102.17L107.065 211H105.334L104.112 207.66ZM99.2607 206.271H103.611L101.432 200.286L99.2607 206.271ZM108.48 213.549L107.558 212.916C108.108 212.148 108.396 211.357 108.419 210.543V209.075H110.01V210.35C110.01 210.941 109.863 211.533 109.57 212.125C109.283 212.717 108.92 213.191 108.48 213.549ZM121.128 202.949C120.882 202.908 120.615 202.888 120.328 202.888C119.262 202.888 118.538 203.342 118.157 204.25V211H116.531V201.49H118.113L118.14 202.589C118.673 201.739 119.429 201.314 120.407 201.314C120.724 201.314 120.964 201.355 121.128 201.438V202.949ZM128.502 210.06C127.869 210.804 126.94 211.176 125.716 211.176C124.702 211.176 123.929 210.883 123.396 210.297C122.868 209.705 122.602 208.832 122.596 207.678V201.49H124.222V207.634C124.222 209.075 124.808 209.796 125.979 209.796C127.222 209.796 128.048 209.333 128.458 208.407V201.49H130.084V211H128.537L128.502 210.06ZM134.101 201.49L134.153 202.686C134.88 201.771 135.829 201.314 137.001 201.314C139.011 201.314 140.024 202.448 140.042 204.716V211H138.416V204.707C138.41 204.021 138.252 203.515 137.941 203.187C137.637 202.858 137.159 202.694 136.509 202.694C135.981 202.694 135.519 202.835 135.12 203.116C134.722 203.397 134.411 203.767 134.188 204.224V211H132.562V201.49H134.101ZM148.031 208.478C148.031 208.038 147.864 207.698 147.53 207.458C147.202 207.212 146.625 207.001 145.799 206.825C144.979 206.649 144.325 206.438 143.839 206.192C143.358 205.946 143.001 205.653 142.767 205.313C142.538 204.974 142.424 204.569 142.424 204.101C142.424 203.321 142.752 202.662 143.408 202.123C144.07 201.584 144.914 201.314 145.939 201.314C147.018 201.314 147.891 201.593 148.559 202.149C149.232 202.706 149.569 203.418 149.569 204.285H147.935C147.935 203.84 147.744 203.456 147.363 203.134C146.988 202.812 146.514 202.65 145.939 202.65C145.348 202.65 144.885 202.779 144.551 203.037C144.217 203.295 144.05 203.632 144.05 204.048C144.05 204.44 144.205 204.736 144.516 204.936C144.826 205.135 145.386 205.325 146.194 205.507C147.009 205.688 147.668 205.905 148.172 206.157C148.676 206.409 149.048 206.714 149.288 207.071C149.534 207.423 149.657 207.854 149.657 208.363C149.657 209.213 149.317 209.896 148.638 210.411C147.958 210.921 147.076 211.176 145.992 211.176C145.23 211.176 144.557 211.041 143.971 210.771C143.385 210.502 142.925 210.127 142.591 209.646C142.263 209.16 142.099 208.636 142.099 208.073H143.725C143.754 208.618 143.971 209.052 144.375 209.374C144.785 209.69 145.324 209.849 145.992 209.849C146.607 209.849 147.1 209.726 147.469 209.479C147.844 209.228 148.031 208.894 148.031 208.478ZM155.81 206.157C155.81 205.226 155.991 204.388 156.354 203.644C156.724 202.899 157.233 202.325 157.884 201.921C158.54 201.517 159.287 201.314 160.125 201.314C161.42 201.314 162.466 201.763 163.263 202.659C164.065 203.556 164.467 204.748 164.467 206.236V206.351C164.467 207.276 164.288 208.108 163.931 208.847C163.579 209.579 163.072 210.15 162.41 210.561C161.754 210.971 160.998 211.176 160.143 211.176C158.854 211.176 157.808 210.728 157.005 209.831C156.208 208.935 155.81 207.748 155.81 206.271V206.157ZM157.444 206.351C157.444 207.405 157.688 208.252 158.174 208.891C158.666 209.529 159.322 209.849 160.143 209.849C160.969 209.849 161.625 209.526 162.111 208.882C162.598 208.231 162.841 207.323 162.841 206.157C162.841 205.114 162.592 204.271 162.094 203.626C161.602 202.976 160.945 202.65 160.125 202.65C159.322 202.65 158.675 202.97 158.183 203.608C157.69 204.247 157.444 205.161 157.444 206.351ZM168.044 201.49L168.097 202.686C168.823 201.771 169.772 201.314 170.944 201.314C172.954 201.314 173.968 202.448 173.985 204.716V211H172.359V204.707C172.354 204.021 172.195 203.515 171.885 203.187C171.58 202.858 171.103 202.694 170.452 202.694C169.925 202.694 169.462 202.835 169.063 203.116C168.665 203.397 168.354 203.767 168.132 204.224V211H166.506V201.49H168.044ZM182.432 201.49L182.476 202.545C183.173 201.725 184.113 201.314 185.297 201.314C186.627 201.314 187.532 201.824 188.013 202.844C188.329 202.387 188.739 202.018 189.243 201.736C189.753 201.455 190.354 201.314 191.045 201.314C193.131 201.314 194.191 202.419 194.227 204.628V211H192.601V204.725C192.601 204.045 192.445 203.538 192.135 203.204C191.824 202.864 191.303 202.694 190.57 202.694C189.967 202.694 189.466 202.876 189.067 203.239C188.669 203.597 188.438 204.08 188.373 204.689V211H186.738V204.769C186.738 203.386 186.062 202.694 184.708 202.694C183.642 202.694 182.912 203.148 182.52 204.057V211H180.894V201.49H182.432ZM196.257 206.157C196.257 205.226 196.438 204.388 196.802 203.644C197.171 202.899 197.681 202.325 198.331 201.921C198.987 201.517 199.734 201.314 200.572 201.314C201.867 201.314 202.913 201.763 203.71 202.659C204.513 203.556 204.914 204.748 204.914 206.236V206.351C204.914 207.276 204.735 208.108 204.378 208.847C204.026 209.579 203.52 210.15 202.857 210.561C202.201 210.971 201.445 211.176 200.59 211.176C199.301 211.176 198.255 210.728 197.452 209.831C196.655 208.935 196.257 207.748 196.257 206.271V206.157ZM197.892 206.351C197.892 207.405 198.135 208.252 198.621 208.891C199.113 209.529 199.77 209.849 200.59 209.849C201.416 209.849 202.072 209.526 202.559 208.882C203.045 208.231 203.288 207.323 203.288 206.157C203.288 205.114 203.039 204.271 202.541 203.626C202.049 202.976 201.393 202.65 200.572 202.65C199.77 202.65 199.122 202.97 198.63 203.608C198.138 204.247 197.892 205.161 197.892 206.351ZM211.55 202.949C211.304 202.908 211.037 202.888 210.75 202.888C209.684 202.888 208.96 203.342 208.579 204.25V211H206.953V201.49H208.535L208.562 202.589C209.095 201.739 209.851 201.314 210.829 201.314C211.146 201.314 211.386 201.355 211.55 201.438V202.949ZM216.823 211.176C215.534 211.176 214.485 210.754 213.677 209.91C212.868 209.061 212.464 207.927 212.464 206.509V206.21C212.464 205.267 212.643 204.426 213 203.688C213.363 202.943 213.867 202.363 214.512 201.947C215.162 201.525 215.865 201.314 216.621 201.314C217.857 201.314 218.818 201.722 219.504 202.536C220.189 203.351 220.532 204.517 220.532 206.034V206.711H214.09C214.113 207.648 214.386 208.407 214.907 208.987C215.435 209.562 216.103 209.849 216.911 209.849C217.485 209.849 217.972 209.731 218.37 209.497C218.769 209.263 219.117 208.952 219.416 208.565L220.409 209.339C219.612 210.563 218.417 211.176 216.823 211.176ZM216.621 202.65C215.965 202.65 215.414 202.891 214.969 203.371C214.523 203.846 214.248 204.514 214.143 205.375H218.906V205.252C218.859 204.426 218.637 203.787 218.238 203.336C217.84 202.879 217.301 202.65 216.621 202.65ZM229.093 199.188V201.49H230.868V202.747H229.093V208.645C229.093 209.025 229.172 209.312 229.33 209.506C229.488 209.693 229.758 209.787 230.139 209.787C230.326 209.787 230.584 209.752 230.912 209.682V211C230.484 211.117 230.068 211.176 229.664 211.176C228.938 211.176 228.39 210.956 228.021 210.517C227.651 210.077 227.467 209.453 227.467 208.645V202.747H225.735V201.49H227.467V199.188H229.093ZM234.401 202.642C235.122 201.757 236.06 201.314 237.214 201.314C239.224 201.314 240.237 202.448 240.255 204.716V211H238.629V204.707C238.623 204.021 238.465 203.515 238.154 203.187C237.85 202.858 237.372 202.694 236.722 202.694C236.194 202.694 235.731 202.835 235.333 203.116C234.935 203.397 234.624 203.767 234.401 204.224V211H232.775V197.5H234.401V202.642ZM248.561 211C248.467 210.812 248.391 210.479 248.332 209.998C247.576 210.783 246.674 211.176 245.625 211.176C244.688 211.176 243.917 210.912 243.313 210.385C242.716 209.852 242.417 209.178 242.417 208.363C242.417 207.373 242.792 206.605 243.542 206.061C244.298 205.51 245.358 205.234 246.724 205.234H248.306V204.487C248.306 203.919 248.136 203.468 247.796 203.134C247.456 202.794 246.955 202.624 246.293 202.624C245.713 202.624 245.227 202.771 244.834 203.063C244.441 203.356 244.245 203.711 244.245 204.127H242.61C242.61 203.652 242.777 203.195 243.111 202.756C243.451 202.311 243.908 201.959 244.482 201.701C245.062 201.443 245.698 201.314 246.39 201.314C247.485 201.314 248.344 201.59 248.965 202.141C249.586 202.686 249.908 203.438 249.932 204.399V208.776C249.932 209.649 250.043 210.344 250.266 210.859V211H248.561ZM245.862 209.761C246.372 209.761 246.855 209.629 247.312 209.365C247.77 209.102 248.101 208.759 248.306 208.337V206.386H247.031C245.039 206.386 244.043 206.969 244.043 208.135C244.043 208.645 244.213 209.043 244.553 209.33C244.893 209.617 245.329 209.761 245.862 209.761ZM254.019 201.49L254.071 202.686C254.798 201.771 255.747 201.314 256.919 201.314C258.929 201.314 259.942 202.448 259.96 204.716V211H258.334V204.707C258.328 204.021 258.17 203.515 257.859 203.187C257.555 202.858 257.077 202.694 256.427 202.694C255.899 202.694 255.437 202.835 255.038 203.116C254.64 203.397 254.329 203.767 254.106 204.224V211H252.48V201.49H254.019ZM274.471 201.543C274.471 202.182 274.301 202.75 273.961 203.248C273.627 203.746 273.173 204.136 272.599 204.417C273.267 204.704 273.794 205.123 274.181 205.674C274.573 206.225 274.77 206.849 274.77 207.546C274.77 208.653 274.395 209.535 273.645 210.191C272.9 210.848 271.919 211.176 270.7 211.176C269.47 211.176 268.482 210.848 267.738 210.191C267 209.529 266.631 208.647 266.631 207.546C266.631 206.854 266.818 206.23 267.193 205.674C267.574 205.117 268.099 204.695 268.767 204.408C268.198 204.127 267.75 203.737 267.422 203.239C267.094 202.741 266.93 202.176 266.93 201.543C266.93 200.465 267.275 199.609 267.967 198.977C268.658 198.344 269.569 198.027 270.7 198.027C271.825 198.027 272.733 198.344 273.425 198.977C274.122 199.609 274.471 200.465 274.471 201.543ZM273.144 207.511C273.144 206.796 272.915 206.213 272.458 205.762C272.007 205.311 271.415 205.085 270.683 205.085C269.95 205.085 269.361 205.308 268.916 205.753C268.477 206.198 268.257 206.784 268.257 207.511C268.257 208.237 268.471 208.809 268.898 209.225C269.332 209.641 269.933 209.849 270.7 209.849C271.462 209.849 272.06 209.641 272.493 209.225C272.927 208.803 273.144 208.231 273.144 207.511ZM270.7 199.363C270.062 199.363 269.543 199.562 269.145 199.961C268.752 200.354 268.556 200.89 268.556 201.569C268.556 202.22 268.749 202.747 269.136 203.151C269.528 203.55 270.05 203.749 270.7 203.749C271.351 203.749 271.869 203.55 272.256 203.151C272.648 202.747 272.845 202.22 272.845 201.569C272.845 200.919 272.643 200.389 272.238 199.979C271.834 199.568 271.321 199.363 270.7 199.363ZM277.564 204.584L278.215 198.203H284.771V199.706H279.595L279.208 203.195C279.835 202.826 280.547 202.642 281.344 202.642C282.51 202.642 283.436 203.028 284.121 203.802C284.807 204.569 285.149 205.609 285.149 206.922C285.149 208.24 284.792 209.28 284.077 210.042C283.368 210.798 282.375 211.176 281.098 211.176C279.967 211.176 279.044 210.862 278.329 210.235C277.614 209.608 277.207 208.741 277.107 207.634H278.646C278.745 208.366 279.006 208.92 279.428 209.295C279.85 209.664 280.406 209.849 281.098 209.849C281.854 209.849 282.445 209.591 282.873 209.075C283.307 208.56 283.523 207.848 283.523 206.939C283.523 206.084 283.289 205.398 282.82 204.883C282.357 204.361 281.739 204.101 280.966 204.101C280.257 204.101 279.7 204.256 279.296 204.566L278.865 204.918L277.564 204.584ZM294.949 205.542C294.949 207.446 294.624 208.861 293.974 209.787C293.323 210.713 292.307 211.176 290.924 211.176C289.559 211.176 288.548 210.725 287.892 209.822C287.235 208.914 286.896 207.561 286.872 205.762V203.591C286.872 201.71 287.197 200.312 287.848 199.398C288.498 198.484 289.518 198.027 290.906 198.027C292.283 198.027 293.297 198.47 293.947 199.354C294.598 200.233 294.932 201.593 294.949 203.433V205.542ZM293.323 203.318C293.323 201.941 293.13 200.939 292.743 200.312C292.356 199.68 291.744 199.363 290.906 199.363C290.074 199.363 289.468 199.677 289.087 200.304C288.706 200.931 288.51 201.895 288.498 203.195V205.797C288.498 207.18 288.697 208.202 289.096 208.864C289.5 209.521 290.109 209.849 290.924 209.849C291.727 209.849 292.321 209.538 292.708 208.917C293.101 208.296 293.306 207.317 293.323 205.981V203.318ZM26.7598 228.49L26.8037 229.545C27.501 228.725 28.4414 228.314 29.625 228.314C30.9551 228.314 31.8604 228.824 32.3408 229.844C32.6572 229.387 33.0674 229.018 33.5713 228.736C34.0811 228.455 34.6816 228.314 35.373 228.314C37.459 228.314 38.5195 229.419 38.5547 231.628V238H36.9287V231.725C36.9287 231.045 36.7734 230.538 36.4629 230.204C36.1523 229.864 35.6309 229.694 34.8984 229.694C34.2949 229.694 33.7939 229.876 33.3955 230.239C32.9971 230.597 32.7656 231.08 32.7012 231.689V238H31.0664V231.769C31.0664 230.386 30.3896 229.694 29.0361 229.694C27.9697 229.694 27.2402 230.148 26.8477 231.057V238H25.2217V228.49H26.7598ZM42.7822 238H41.1562V228.49H42.7822V238ZM41.0244 225.968C41.0244 225.704 41.1035 225.481 41.2617 225.3C41.4258 225.118 41.666 225.027 41.9824 225.027C42.2988 225.027 42.5391 225.118 42.7031 225.3C42.8672 225.481 42.9492 225.704 42.9492 225.968C42.9492 226.231 42.8672 226.451 42.7031 226.627C42.5391 226.803 42.2988 226.891 41.9824 226.891C41.666 226.891 41.4258 226.803 41.2617 226.627C41.1035 226.451 41.0244 226.231 41.0244 225.968ZM47.1592 238H45.5332V224.5H47.1592V238ZM51.5361 238H49.9102V224.5H51.5361V238ZM55.9131 238H54.2871V228.49H55.9131V238ZM54.1553 225.968C54.1553 225.704 54.2344 225.481 54.3926 225.3C54.5566 225.118 54.7969 225.027 55.1133 225.027C55.4297 225.027 55.6699 225.118 55.834 225.3C55.998 225.481 56.0801 225.704 56.0801 225.968C56.0801 226.231 55.998 226.451 55.834 226.627C55.6699 226.803 55.4297 226.891 55.1133 226.891C54.7969 226.891 54.5566 226.803 54.3926 226.627C54.2344 226.451 54.1553 226.231 54.1553 225.968ZM58.0928 233.157C58.0928 232.226 58.2744 231.388 58.6377 230.644C59.0068 229.899 59.5166 229.325 60.167 228.921C60.8232 228.517 61.5703 228.314 62.4082 228.314C63.7031 228.314 64.749 228.763 65.5459 229.659C66.3486 230.556 66.75 231.748 66.75 233.236V233.351C66.75 234.276 66.5713 235.108 66.2139 235.847C65.8623 236.579 65.3555 237.15 64.6934 237.561C64.0371 237.971 63.2812 238.176 62.4258 238.176C61.1367 238.176 60.0908 237.728 59.2881 236.831C58.4912 235.935 58.0928 234.748 58.0928 233.271V233.157ZM59.7275 233.351C59.7275 234.405 59.9707 235.252 60.457 235.891C60.9492 236.529 61.6055 236.849 62.4258 236.849C63.252 236.849 63.9082 236.526 64.3945 235.882C64.8809 235.231 65.124 234.323 65.124 233.157C65.124 232.114 64.875 231.271 64.377 230.626C63.8848 229.976 63.2285 229.65 62.4082 229.65C61.6055 229.65 60.958 229.97 60.4658 230.608C59.9736 231.247 59.7275 232.161 59.7275 233.351ZM70.3271 228.49L70.3799 229.686C71.1064 228.771 72.0557 228.314 73.2275 228.314C75.2373 228.314 76.251 229.448 76.2686 231.716V238H74.6426V231.707C74.6367 231.021 74.4785 230.515 74.168 230.187C73.8633 229.858 73.3857 229.694 72.7354 229.694C72.208 229.694 71.7451 229.835 71.3467 230.116C70.9482 230.397 70.6377 230.767 70.415 231.224V238H68.7891V228.49H70.3271ZM91.2188 233.351C91.2188 234.798 90.8877 235.964 90.2256 236.849C89.5635 237.733 88.667 238.176 87.5361 238.176C86.3818 238.176 85.4736 237.81 84.8115 237.077V241.656H83.1855V228.49H84.6709L84.75 229.545C85.4121 228.725 86.332 228.314 87.5098 228.314C88.6523 228.314 89.5547 228.745 90.2168 229.606C90.8848 230.468 91.2188 231.666 91.2188 233.201V233.351ZM89.5928 233.166C89.5928 232.094 89.3643 231.247 88.9072 230.626C88.4502 230.005 87.8232 229.694 87.0264 229.694C86.042 229.694 85.3037 230.131 84.8115 231.004V235.548C85.2979 236.415 86.042 236.849 87.0439 236.849C87.8232 236.849 88.4414 236.541 88.8984 235.926C89.3613 235.305 89.5928 234.385 89.5928 233.166ZM97.2393 238.176C95.9502 238.176 94.9014 237.754 94.0928 236.91C93.2842 236.061 92.8799 234.927 92.8799 233.509V233.21C92.8799 232.267 93.0586 231.426 93.416 230.688C93.7793 229.943 94.2832 229.363 94.9277 228.947C95.5781 228.525 96.2812 228.314 97.0371 228.314C98.2734 228.314 99.2344 228.722 99.9199 229.536C100.605 230.351 100.948 231.517 100.948 233.034V233.711H94.5059C94.5293 234.648 94.8018 235.407 95.3232 235.987C95.8506 236.562 96.5186 236.849 97.3271 236.849C97.9014 236.849 98.3877 236.731 98.7861 236.497C99.1846 236.263 99.5332 235.952 99.832 235.565L100.825 236.339C100.028 237.563 98.833 238.176 97.2393 238.176ZM97.0371 229.65C96.3809 229.65 95.8301 229.891 95.3848 230.371C94.9395 230.846 94.6641 231.514 94.5586 232.375H99.3223V232.252C99.2754 231.426 99.0527 230.787 98.6543 230.336C98.2559 229.879 97.7168 229.65 97.0371 229.65ZM107.435 229.949C107.188 229.908 106.922 229.888 106.635 229.888C105.568 229.888 104.845 230.342 104.464 231.25V238H102.838V228.49H104.42L104.446 229.589C104.979 228.739 105.735 228.314 106.714 228.314C107.03 228.314 107.271 228.355 107.435 228.438V229.949ZM114.475 235.478C114.475 235.038 114.308 234.698 113.974 234.458C113.646 234.212 113.068 234.001 112.242 233.825C111.422 233.649 110.769 233.438 110.282 233.192C109.802 232.946 109.444 232.653 109.21 232.313C108.981 231.974 108.867 231.569 108.867 231.101C108.867 230.321 109.195 229.662 109.852 229.123C110.514 228.584 111.357 228.314 112.383 228.314C113.461 228.314 114.334 228.593 115.002 229.149C115.676 229.706 116.013 230.418 116.013 231.285H114.378C114.378 230.84 114.188 230.456 113.807 230.134C113.432 229.812 112.957 229.65 112.383 229.65C111.791 229.65 111.328 229.779 110.994 230.037C110.66 230.295 110.493 230.632 110.493 231.048C110.493 231.44 110.648 231.736 110.959 231.936C111.27 232.135 111.829 232.325 112.638 232.507C113.452 232.688 114.111 232.905 114.615 233.157C115.119 233.409 115.491 233.714 115.731 234.071C115.978 234.423 116.101 234.854 116.101 235.363C116.101 236.213 115.761 236.896 115.081 237.411C114.401 237.921 113.52 238.176 112.436 238.176C111.674 238.176 111 238.041 110.414 237.771C109.828 237.502 109.368 237.127 109.034 236.646C108.706 236.16 108.542 235.636 108.542 235.073H110.168C110.197 235.618 110.414 236.052 110.818 236.374C111.229 236.69 111.768 236.849 112.436 236.849C113.051 236.849 113.543 236.726 113.912 236.479C114.287 236.228 114.475 235.894 114.475 235.478ZM117.788 233.157C117.788 232.226 117.97 231.388 118.333 230.644C118.702 229.899 119.212 229.325 119.862 228.921C120.519 228.517 121.266 228.314 122.104 228.314C123.398 228.314 124.444 228.763 125.241 229.659C126.044 230.556 126.445 231.748 126.445 233.236V233.351C126.445 234.276 126.267 235.108 125.909 235.847C125.558 236.579 125.051 237.15 124.389 237.561C123.732 237.971 122.977 238.176 122.121 238.176C120.832 238.176 119.786 237.728 118.983 236.831C118.187 235.935 117.788 234.748 117.788 233.271V233.157ZM119.423 233.351C119.423 234.405 119.666 235.252 120.152 235.891C120.645 236.529 121.301 236.849 122.121 236.849C122.947 236.849 123.604 236.526 124.09 235.882C124.576 235.231 124.819 234.323 124.819 233.157C124.819 232.114 124.57 231.271 124.072 230.626C123.58 229.976 122.924 229.65 122.104 229.65C121.301 229.65 120.653 229.97 120.161 230.608C119.669 231.247 119.423 232.161 119.423 233.351ZM130.022 228.49L130.075 229.686C130.802 228.771 131.751 228.314 132.923 228.314C134.933 228.314 135.946 229.448 135.964 231.716V238H134.338V231.707C134.332 231.021 134.174 230.515 133.863 230.187C133.559 229.858 133.081 229.694 132.431 229.694C131.903 229.694 131.44 229.835 131.042 230.116C130.644 230.397 130.333 230.767 130.11 231.224V238H128.484V228.49H130.022ZM144.287 238C144.193 237.812 144.117 237.479 144.059 236.998C143.303 237.783 142.4 238.176 141.352 238.176C140.414 238.176 139.644 237.912 139.04 237.385C138.442 236.852 138.144 236.178 138.144 235.363C138.144 234.373 138.519 233.605 139.269 233.061C140.024 232.51 141.085 232.234 142.45 232.234H144.032V231.487C144.032 230.919 143.862 230.468 143.522 230.134C143.183 229.794 142.682 229.624 142.02 229.624C141.439 229.624 140.953 229.771 140.561 230.063C140.168 230.356 139.972 230.711 139.972 231.127H138.337C138.337 230.652 138.504 230.195 138.838 229.756C139.178 229.311 139.635 228.959 140.209 228.701C140.789 228.443 141.425 228.314 142.116 228.314C143.212 228.314 144.07 228.59 144.691 229.141C145.312 229.686 145.635 230.438 145.658 231.399V235.776C145.658 236.649 145.77 237.344 145.992 237.859V238H144.287ZM141.589 236.761C142.099 236.761 142.582 236.629 143.039 236.365C143.496 236.102 143.827 235.759 144.032 235.337V233.386H142.758C140.766 233.386 139.77 233.969 139.77 235.135C139.77 235.645 139.939 236.043 140.279 236.33C140.619 236.617 141.056 236.761 141.589 236.761ZM149.974 238H148.348V224.5H149.974V238ZM160.863 236.849C161.443 236.849 161.95 236.673 162.384 236.321C162.817 235.97 163.058 235.53 163.104 235.003H164.643C164.613 235.548 164.426 236.066 164.08 236.559C163.734 237.051 163.271 237.443 162.691 237.736C162.117 238.029 161.508 238.176 160.863 238.176C159.568 238.176 158.537 237.745 157.77 236.884C157.008 236.017 156.627 234.833 156.627 233.333V233.061C156.627 232.135 156.797 231.312 157.137 230.591C157.477 229.87 157.963 229.311 158.596 228.912C159.234 228.514 159.987 228.314 160.854 228.314C161.921 228.314 162.806 228.634 163.509 229.272C164.218 229.911 164.596 230.74 164.643 231.76H163.104C163.058 231.145 162.823 230.641 162.401 230.248C161.985 229.85 161.47 229.65 160.854 229.65C160.028 229.65 159.387 229.949 158.93 230.547C158.479 231.139 158.253 231.997 158.253 233.122V233.43C158.253 234.525 158.479 235.369 158.93 235.961C159.381 236.553 160.025 236.849 160.863 236.849ZM166.04 233.157C166.04 232.226 166.222 231.388 166.585 230.644C166.954 229.899 167.464 229.325 168.114 228.921C168.771 228.517 169.518 228.314 170.355 228.314C171.65 228.314 172.696 228.763 173.493 229.659C174.296 230.556 174.697 231.748 174.697 233.236V233.351C174.697 234.276 174.519 235.108 174.161 235.847C173.81 236.579 173.303 237.15 172.641 237.561C171.984 237.971 171.229 238.176 170.373 238.176C169.084 238.176 168.038 237.728 167.235 236.831C166.438 235.935 166.04 234.748 166.04 233.271V233.157ZM167.675 233.351C167.675 234.405 167.918 235.252 168.404 235.891C168.896 236.529 169.553 236.849 170.373 236.849C171.199 236.849 171.855 236.526 172.342 235.882C172.828 235.231 173.071 234.323 173.071 233.157C173.071 232.114 172.822 231.271 172.324 230.626C171.832 229.976 171.176 229.65 170.355 229.65C169.553 229.65 168.905 229.97 168.413 230.608C167.921 231.247 167.675 232.161 167.675 233.351ZM178.266 228.49L178.31 229.545C179.007 228.725 179.947 228.314 181.131 228.314C182.461 228.314 183.366 228.824 183.847 229.844C184.163 229.387 184.573 229.018 185.077 228.736C185.587 228.455 186.188 228.314 186.879 228.314C188.965 228.314 190.025 229.419 190.061 231.628V238H188.435V231.725C188.435 231.045 188.279 230.538 187.969 230.204C187.658 229.864 187.137 229.694 186.404 229.694C185.801 229.694 185.3 229.876 184.901 230.239C184.503 230.597 184.271 231.08 184.207 231.689V238H182.572V231.769C182.572 230.386 181.896 229.694 180.542 229.694C179.476 229.694 178.746 230.148 178.354 231.057V238H176.728V228.49H178.266ZM200.555 233.351C200.555 234.798 200.224 235.964 199.562 236.849C198.899 237.733 198.003 238.176 196.872 238.176C195.718 238.176 194.81 237.81 194.147 237.077V241.656H192.521V228.49H194.007L194.086 229.545C194.748 228.725 195.668 228.314 196.846 228.314C197.988 228.314 198.891 228.745 199.553 229.606C200.221 230.468 200.555 231.666 200.555 233.201V233.351ZM198.929 233.166C198.929 232.094 198.7 231.247 198.243 230.626C197.786 230.005 197.159 229.694 196.362 229.694C195.378 229.694 194.64 230.131 194.147 231.004V235.548C194.634 236.415 195.378 236.849 196.38 236.849C197.159 236.849 197.777 236.541 198.234 235.926C198.697 235.305 198.929 234.385 198.929 233.166ZM208.5 237.06C207.867 237.804 206.938 238.176 205.714 238.176C204.7 238.176 203.927 237.883 203.394 237.297C202.866 236.705 202.6 235.832 202.594 234.678V228.49H204.22V234.634C204.22 236.075 204.806 236.796 205.978 236.796C207.22 236.796 208.046 236.333 208.456 235.407V228.49H210.082V238H208.535L208.5 237.06ZM214.767 226.188V228.49H216.542V229.747H214.767V235.645C214.767 236.025 214.846 236.312 215.004 236.506C215.162 236.693 215.432 236.787 215.812 236.787C216 236.787 216.258 236.752 216.586 236.682V238C216.158 238.117 215.742 238.176 215.338 238.176C214.611 238.176 214.063 237.956 213.694 237.517C213.325 237.077 213.141 236.453 213.141 235.645V229.747H211.409V228.49H213.141V226.188H214.767ZM222.396 238.176C221.106 238.176 220.058 237.754 219.249 236.91C218.44 236.061 218.036 234.927 218.036 233.509V233.21C218.036 232.267 218.215 231.426 218.572 230.688C218.936 229.943 219.439 229.363 220.084 228.947C220.734 228.525 221.438 228.314 222.193 228.314C223.43 228.314 224.391 228.722 225.076 229.536C225.762 230.351 226.104 231.517 226.104 233.034V233.711H219.662C219.686 234.648 219.958 235.407 220.479 235.987C221.007 236.562 221.675 236.849 222.483 236.849C223.058 236.849 223.544 236.731 223.942 236.497C224.341 236.263 224.689 235.952 224.988 235.565L225.981 236.339C225.185 237.563 223.989 238.176 222.396 238.176ZM222.193 229.65C221.537 229.65 220.986 229.891 220.541 230.371C220.096 230.846 219.82 231.514 219.715 232.375H224.479V232.252C224.432 231.426 224.209 230.787 223.811 230.336C223.412 229.879 222.873 229.65 222.193 229.65ZM232.591 229.949C232.345 229.908 232.078 229.888 231.791 229.888C230.725 229.888 230.001 230.342 229.62 231.25V238H227.994V228.49H229.576L229.603 229.589C230.136 228.739 230.892 228.314 231.87 228.314C232.187 228.314 232.427 228.355 232.591 228.438V229.949ZM239.631 235.478C239.631 235.038 239.464 234.698 239.13 234.458C238.802 234.212 238.225 234.001 237.398 233.825C236.578 233.649 235.925 233.438 235.438 233.192C234.958 232.946 234.601 232.653 234.366 232.313C234.138 231.974 234.023 231.569 234.023 231.101C234.023 230.321 234.352 229.662 235.008 229.123C235.67 228.584 236.514 228.314 237.539 228.314C238.617 228.314 239.49 228.593 240.158 229.149C240.832 229.706 241.169 230.418 241.169 231.285H239.534C239.534 230.84 239.344 230.456 238.963 230.134C238.588 229.812 238.113 229.65 237.539 229.65C236.947 229.65 236.484 229.779 236.15 230.037C235.816 230.295 235.649 230.632 235.649 231.048C235.649 231.44 235.805 231.736 236.115 231.936C236.426 232.135 236.985 232.325 237.794 232.507C238.608 232.688 239.268 232.905 239.771 233.157C240.275 233.409 240.647 233.714 240.888 234.071C241.134 234.423 241.257 234.854 241.257 235.363C241.257 236.213 240.917 236.896 240.237 237.411C239.558 237.921 238.676 238.176 237.592 238.176C236.83 238.176 236.156 238.041 235.57 237.771C234.984 237.502 234.524 237.127 234.19 236.646C233.862 236.16 233.698 235.636 233.698 235.073H235.324C235.354 235.618 235.57 236.052 235.975 236.374C236.385 236.69 236.924 236.849 237.592 236.849C238.207 236.849 238.699 236.726 239.068 236.479C239.443 236.228 239.631 235.894 239.631 235.478ZM256.26 235.759L258.088 228.49H259.714L256.945 238H255.627L253.315 230.793L251.065 238H249.747L246.987 228.49H248.604L250.477 235.609L252.691 228.49H254.001L256.26 235.759ZM260.944 233.157C260.944 232.226 261.126 231.388 261.489 230.644C261.858 229.899 262.368 229.325 263.019 228.921C263.675 228.517 264.422 228.314 265.26 228.314C266.555 228.314 267.601 228.763 268.397 229.659C269.2 230.556 269.602 231.748 269.602 233.236V233.351C269.602 234.276 269.423 235.108 269.065 235.847C268.714 236.579 268.207 237.15 267.545 237.561C266.889 237.971 266.133 238.176 265.277 238.176C263.988 238.176 262.942 237.728 262.14 236.831C261.343 235.935 260.944 234.748 260.944 233.271V233.157ZM262.579 233.351C262.579 234.405 262.822 235.252 263.309 235.891C263.801 236.529 264.457 236.849 265.277 236.849C266.104 236.849 266.76 236.526 267.246 235.882C267.732 235.231 267.976 234.323 267.976 233.157C267.976 232.114 267.727 231.271 267.229 230.626C266.736 229.976 266.08 229.65 265.26 229.65C264.457 229.65 263.81 229.97 263.317 230.608C262.825 231.247 262.579 232.161 262.579 233.351ZM276.237 229.949C275.991 229.908 275.725 229.888 275.438 229.888C274.371 229.888 273.647 230.342 273.267 231.25V238H271.641V228.49H273.223L273.249 229.589C273.782 228.739 274.538 228.314 275.517 228.314C275.833 228.314 276.073 228.355 276.237 228.438V229.949ZM279.507 238H277.881V224.5H279.507V238ZM281.722 233.166C281.722 231.707 282.067 230.535 282.759 229.65C283.45 228.76 284.355 228.314 285.475 228.314C286.588 228.314 287.47 228.695 288.12 229.457V224.5H289.746V238H288.252L288.173 236.98C287.522 237.777 286.617 238.176 285.457 238.176C284.355 238.176 283.456 237.725 282.759 236.822C282.067 235.92 281.722 234.742 281.722 233.289V233.166ZM283.348 233.351C283.348 234.429 283.57 235.272 284.016 235.882C284.461 236.491 285.076 236.796 285.861 236.796C286.893 236.796 287.646 236.333 288.12 235.407V231.039C287.634 230.143 286.887 229.694 285.879 229.694C285.082 229.694 284.461 230.002 284.016 230.617C283.57 231.232 283.348 232.144 283.348 233.351ZM300.697 235.759L302.525 228.49H304.151L301.383 238H300.064L297.753 230.793L295.503 238H294.185L291.425 228.49H293.042L294.914 235.609L297.129 228.49H298.438L300.697 235.759ZM307.579 238H305.953V228.49H307.579V238ZM305.821 225.968C305.821 225.704 305.9 225.481 306.059 225.3C306.223 225.118 306.463 225.027 306.779 225.027C307.096 225.027 307.336 225.118 307.5 225.3C307.664 225.481 307.746 225.704 307.746 225.968C307.746 226.231 307.664 226.451 307.5 226.627C307.336 226.803 307.096 226.891 306.779 226.891C306.463 226.891 306.223 226.803 306.059 226.627C305.9 226.451 305.821 226.231 305.821 225.968ZM309.794 233.166C309.794 231.707 310.14 230.535 310.831 229.65C311.522 228.76 312.428 228.314 313.547 228.314C314.66 228.314 315.542 228.695 316.192 229.457V224.5H317.818V238H316.324L316.245 236.98C315.595 237.777 314.689 238.176 313.529 238.176C312.428 238.176 311.528 237.725 310.831 236.822C310.14 235.92 309.794 234.742 309.794 233.289V233.166ZM311.42 233.351C311.42 234.429 311.643 235.272 312.088 235.882C312.533 236.491 313.148 236.796 313.934 236.796C314.965 236.796 315.718 236.333 316.192 235.407V231.039C315.706 230.143 314.959 229.694 313.951 229.694C313.154 229.694 312.533 230.002 312.088 230.617C311.643 231.232 311.42 232.144 311.42 233.351ZM324.296 238.176C323.007 238.176 321.958 237.754 321.149 236.91C320.341 236.061 319.937 234.927 319.937 233.509V233.21C319.937 232.267 320.115 231.426 320.473 230.688C320.836 229.943 321.34 229.363 321.984 228.947C322.635 228.525 323.338 228.314 324.094 228.314C325.33 228.314 326.291 228.722 326.977 229.536C327.662 230.351 328.005 231.517 328.005 233.034V233.711H321.562C321.586 234.648 321.858 235.407 322.38 235.987C322.907 236.562 323.575 236.849 324.384 236.849C324.958 236.849 325.444 236.731 325.843 236.497C326.241 236.263 326.59 235.952 326.889 235.565L327.882 236.339C327.085 237.563 325.89 238.176 324.296 238.176ZM324.094 229.65C323.438 229.65 322.887 229.891 322.441 230.371C321.996 230.846 321.721 231.514 321.615 232.375H326.379V232.252C326.332 231.426 326.109 230.787 325.711 230.336C325.312 229.879 324.773 229.65 324.094 229.65ZM329.842 240.549L328.919 239.916C329.47 239.148 329.757 238.357 329.78 237.543V236.075H331.371V237.35C331.371 237.941 331.225 238.533 330.932 239.125C330.645 239.717 330.281 240.191 329.842 240.549ZM31.1016 265C31.0078 264.812 30.9316 264.479 30.873 263.998C30.1172 264.783 29.2148 265.176 28.166 265.176C27.2285 265.176 26.458 264.912 25.8545 264.385C25.2568 263.852 24.958 263.178 24.958 262.363C24.958 261.373 25.333 260.605 26.083 260.061C26.8389 259.51 27.8994 259.234 29.2646 259.234H30.8467V258.487C30.8467 257.919 30.6768 257.468 30.3369 257.134C29.9971 256.794 29.4961 256.624 28.834 256.624C28.2539 256.624 27.7676 256.771 27.375 257.063C26.9824 257.356 26.7861 257.711 26.7861 258.127H25.1514C25.1514 257.652 25.3184 257.195 25.6523 256.756C25.9922 256.311 26.4492 255.959 27.0234 255.701C27.6035 255.443 28.2393 255.314 28.9307 255.314C30.0264 255.314 30.8848 255.59 31.5059 256.141C32.127 256.686 32.4492 257.438 32.4727 258.399V262.776C32.4727 263.649 32.584 264.344 32.8066 264.859V265H31.1016ZM28.4033 263.761C28.9131 263.761 29.3965 263.629 29.8535 263.365C30.3105 263.102 30.6416 262.759 30.8467 262.337V260.386H29.5723C27.5801 260.386 26.584 260.969 26.584 262.135C26.584 262.645 26.7539 263.043 27.0938 263.33C27.4336 263.617 27.8701 263.761 28.4033 263.761ZM36.5596 255.49L36.6123 256.686C37.3389 255.771 38.2881 255.314 39.46 255.314C41.4697 255.314 42.4834 256.448 42.501 258.716V265H40.875V258.707C40.8691 258.021 40.7109 257.515 40.4004 257.187C40.0957 256.858 39.6182 256.694 38.9678 256.694C38.4404 256.694 37.9775 256.835 37.5791 257.116C37.1807 257.397 36.8701 257.767 36.6475 258.224V265H35.0215V255.49H36.5596ZM44.5576 260.166C44.5576 258.707 44.9033 257.535 45.5947 256.65C46.2861 255.76 47.1914 255.314 48.3105 255.314C49.4238 255.314 50.3057 255.695 50.9561 256.457V251.5H52.582V265H51.0879L51.0088 263.98C50.3584 264.777 49.4531 265.176 48.293 265.176C47.1914 265.176 46.292 264.725 45.5947 263.822C44.9033 262.92 44.5576 261.742 44.5576 260.289V260.166ZM46.1836 260.351C46.1836 261.429 46.4062 262.272 46.8516 262.882C47.2969 263.491 47.9121 263.796 48.6973 263.796C49.7285 263.796 50.4814 263.333 50.9561 262.407V258.039C50.4697 257.143 49.7227 256.694 48.7148 256.694C47.918 256.694 47.2969 257.002 46.8516 257.617C46.4062 258.232 46.1836 259.144 46.1836 260.351ZM59.1475 260.157C59.1475 259.226 59.3291 258.388 59.6924 257.644C60.0615 256.899 60.5713 256.325 61.2217 255.921C61.8779 255.517 62.625 255.314 63.4629 255.314C64.7578 255.314 65.8037 255.763 66.6006 256.659C67.4033 257.556 67.8047 258.748 67.8047 260.236V260.351C67.8047 261.276 67.626 262.108 67.2686 262.847C66.917 263.579 66.4102 264.15 65.748 264.561C65.0918 264.971 64.3359 265.176 63.4805 265.176C62.1914 265.176 61.1455 264.728 60.3428 263.831C59.5459 262.935 59.1475 261.748 59.1475 260.271V260.157ZM60.7822 260.351C60.7822 261.405 61.0254 262.252 61.5117 262.891C62.0039 263.529 62.6602 263.849 63.4805 263.849C64.3066 263.849 64.9629 263.526 65.4492 262.882C65.9355 262.231 66.1787 261.323 66.1787 260.157C66.1787 259.114 65.9297 258.271 65.4316 257.626C64.9395 256.976 64.2832 256.65 63.4629 256.65C62.6602 256.65 62.0127 256.97 61.5205 257.608C61.0283 258.247 60.7822 259.161 60.7822 260.351ZM71.3818 255.49L71.4346 256.686C72.1611 255.771 73.1104 255.314 74.2822 255.314C76.292 255.314 77.3057 256.448 77.3232 258.716V265H75.6973V258.707C75.6914 258.021 75.5332 257.515 75.2227 257.187C74.918 256.858 74.4404 256.694 73.79 256.694C73.2627 256.694 72.7998 256.835 72.4014 257.116C72.0029 257.397 71.6924 257.767 71.4697 258.224V265H69.8438V255.49H71.3818ZM92.291 260.351C92.291 261.804 91.957 262.973 91.2891 263.857C90.6211 264.736 89.7246 265.176 88.5996 265.176C87.3984 265.176 86.4697 264.751 85.8135 263.901L85.7344 265H84.2402V251.5H85.8662V256.536C86.5225 255.722 87.4277 255.314 88.582 255.314C89.7363 255.314 90.6416 255.751 91.2979 256.624C91.96 257.497 92.291 258.692 92.291 260.21V260.351ZM90.665 260.166C90.665 259.059 90.4512 258.203 90.0234 257.6C89.5957 256.996 88.9805 256.694 88.1777 256.694C87.1055 256.694 86.335 257.192 85.8662 258.188V262.302C86.3643 263.298 87.1406 263.796 88.1953 263.796C88.9746 263.796 89.5811 263.494 90.0146 262.891C90.4482 262.287 90.665 261.379 90.665 260.166ZM96.1143 265H94.4883V255.49H96.1143V265ZM94.3564 252.968C94.3564 252.704 94.4355 252.481 94.5938 252.3C94.7578 252.118 94.998 252.027 95.3145 252.027C95.6309 252.027 95.8711 252.118 96.0352 252.3C96.1992 252.481 96.2812 252.704 96.2812 252.968C96.2812 253.231 96.1992 253.451 96.0352 253.627C95.8711 253.803 95.6309 253.891 95.3145 253.891C94.998 253.891 94.7578 253.803 94.5938 253.627C94.4355 253.451 94.3564 253.231 94.3564 252.968ZM100.491 265H98.8652V251.5H100.491V265ZM104.868 265H103.242V251.5H104.868V265ZM109.245 265H107.619V255.49H109.245V265ZM107.487 252.968C107.487 252.704 107.566 252.481 107.725 252.3C107.889 252.118 108.129 252.027 108.445 252.027C108.762 252.027 109.002 252.118 109.166 252.3C109.33 252.481 109.412 252.704 109.412 252.968C109.412 253.231 109.33 253.451 109.166 253.627C109.002 253.803 108.762 253.891 108.445 253.891C108.129 253.891 107.889 253.803 107.725 253.627C107.566 253.451 107.487 253.231 107.487 252.968ZM111.425 260.157C111.425 259.226 111.606 258.388 111.97 257.644C112.339 256.899 112.849 256.325 113.499 255.921C114.155 255.517 114.902 255.314 115.74 255.314C117.035 255.314 118.081 255.763 118.878 256.659C119.681 257.556 120.082 258.748 120.082 260.236V260.351C120.082 261.276 119.903 262.108 119.546 262.847C119.194 263.579 118.688 264.15 118.025 264.561C117.369 264.971 116.613 265.176 115.758 265.176C114.469 265.176 113.423 264.728 112.62 263.831C111.823 262.935 111.425 261.748 111.425 260.271V260.157ZM113.06 260.351C113.06 261.405 113.303 262.252 113.789 262.891C114.281 263.529 114.938 263.849 115.758 263.849C116.584 263.849 117.24 263.526 117.727 262.882C118.213 262.231 118.456 261.323 118.456 260.157C118.456 259.114 118.207 258.271 117.709 257.626C117.217 256.976 116.561 256.65 115.74 256.65C114.938 256.65 114.29 256.97 113.798 257.608C113.306 258.247 113.06 259.161 113.06 260.351ZM123.659 255.49L123.712 256.686C124.438 255.771 125.388 255.314 126.56 255.314C128.569 255.314 129.583 256.448 129.601 258.716V265H127.975V258.707C127.969 258.021 127.811 257.515 127.5 257.187C127.195 256.858 126.718 256.694 126.067 256.694C125.54 256.694 125.077 256.835 124.679 257.116C124.28 257.397 123.97 257.767 123.747 258.224V265H122.121V255.49H123.659ZM137.59 262.478C137.59 262.038 137.423 261.698 137.089 261.458C136.761 261.212 136.184 261.001 135.357 260.825C134.537 260.649 133.884 260.438 133.397 260.192C132.917 259.946 132.56 259.653 132.325 259.313C132.097 258.974 131.982 258.569 131.982 258.101C131.982 257.321 132.311 256.662 132.967 256.123C133.629 255.584 134.473 255.314 135.498 255.314C136.576 255.314 137.449 255.593 138.117 256.149C138.791 256.706 139.128 257.418 139.128 258.285H137.493C137.493 257.84 137.303 257.456 136.922 257.134C136.547 256.812 136.072 256.65 135.498 256.65C134.906 256.65 134.443 256.779 134.109 257.037C133.775 257.295 133.608 257.632 133.608 258.048C133.608 258.44 133.764 258.736 134.074 258.936C134.385 259.135 134.944 259.325 135.753 259.507C136.567 259.688 137.227 259.905 137.73 260.157C138.234 260.409 138.606 260.714 138.847 261.071C139.093 261.423 139.216 261.854 139.216 262.363C139.216 263.213 138.876 263.896 138.196 264.411C137.517 264.921 136.635 265.176 135.551 265.176C134.789 265.176 134.115 265.041 133.529 264.771C132.943 264.502 132.483 264.127 132.149 263.646C131.821 263.16 131.657 262.636 131.657 262.073H133.283C133.312 262.618 133.529 263.052 133.934 263.374C134.344 263.69 134.883 263.849 135.551 263.849C136.166 263.849 136.658 263.726 137.027 263.479C137.402 263.228 137.59 262.894 137.59 262.478ZM145.368 260.157C145.368 259.226 145.55 258.388 145.913 257.644C146.282 256.899 146.792 256.325 147.442 255.921C148.099 255.517 148.846 255.314 149.684 255.314C150.979 255.314 152.024 255.763 152.821 256.659C153.624 257.556 154.025 258.748 154.025 260.236V260.351C154.025 261.276 153.847 262.108 153.489 262.847C153.138 263.579 152.631 264.15 151.969 264.561C151.312 264.971 150.557 265.176 149.701 265.176C148.412 265.176 147.366 264.728 146.563 263.831C145.767 262.935 145.368 261.748 145.368 260.271V260.157ZM147.003 260.351C147.003 261.405 147.246 262.252 147.732 262.891C148.225 263.529 148.881 263.849 149.701 263.849C150.527 263.849 151.184 263.526 151.67 262.882C152.156 262.231 152.399 261.323 152.399 260.157C152.399 259.114 152.15 258.271 151.652 257.626C151.16 256.976 150.504 256.65 149.684 256.65C148.881 256.65 148.233 256.97 147.741 257.608C147.249 258.247 147.003 259.161 147.003 260.351ZM156.864 265V256.747H155.361V255.49H156.864V254.515C156.864 253.495 157.137 252.707 157.682 252.15C158.227 251.594 158.997 251.315 159.993 251.315C160.368 251.315 160.74 251.365 161.109 251.465L161.021 252.783C160.746 252.73 160.453 252.704 160.143 252.704C159.615 252.704 159.208 252.859 158.921 253.17C158.634 253.475 158.49 253.914 158.49 254.488V255.49H160.521V256.747H158.49V265H156.864ZM166.392 260.166C166.392 258.707 166.737 257.535 167.429 256.65C168.12 255.76 169.025 255.314 170.145 255.314C171.258 255.314 172.14 255.695 172.79 256.457V251.5H174.416V265H172.922L172.843 263.98C172.192 264.777 171.287 265.176 170.127 265.176C169.025 265.176 168.126 264.725 167.429 263.822C166.737 262.92 166.392 261.742 166.392 260.289V260.166ZM168.018 260.351C168.018 261.429 168.24 262.272 168.686 262.882C169.131 263.491 169.746 263.796 170.531 263.796C171.562 263.796 172.315 263.333 172.79 262.407V258.039C172.304 257.143 171.557 256.694 170.549 256.694C169.752 256.694 169.131 257.002 168.686 257.617C168.24 258.232 168.018 259.144 168.018 260.351ZM180.894 265.176C179.604 265.176 178.556 264.754 177.747 263.91C176.938 263.061 176.534 261.927 176.534 260.509V260.21C176.534 259.267 176.713 258.426 177.07 257.688C177.434 256.943 177.938 256.363 178.582 255.947C179.232 255.525 179.936 255.314 180.691 255.314C181.928 255.314 182.889 255.722 183.574 256.536C184.26 257.351 184.603 258.517 184.603 260.034V260.711H178.16C178.184 261.648 178.456 262.407 178.978 262.987C179.505 263.562 180.173 263.849 180.981 263.849C181.556 263.849 182.042 263.731 182.44 263.497C182.839 263.263 183.188 262.952 183.486 262.565L184.479 263.339C183.683 264.563 182.487 265.176 180.894 265.176ZM180.691 256.65C180.035 256.65 179.484 256.891 179.039 257.371C178.594 257.846 178.318 258.514 178.213 259.375H182.977V259.252C182.93 258.426 182.707 257.787 182.309 257.336C181.91 256.879 181.371 256.65 180.691 256.65ZM189.507 262.794L191.862 255.49H193.523L190.113 265H188.874L185.429 255.49H187.09L189.507 262.794ZM196.854 265H195.229V255.49H196.854V265ZM195.097 252.968C195.097 252.704 195.176 252.481 195.334 252.3C195.498 252.118 195.738 252.027 196.055 252.027C196.371 252.027 196.611 252.118 196.775 252.3C196.939 252.481 197.021 252.704 197.021 252.968C197.021 253.231 196.939 253.451 196.775 253.627C196.611 253.803 196.371 253.891 196.055 253.891C195.738 253.891 195.498 253.803 195.334 253.627C195.176 253.451 195.097 253.231 195.097 252.968ZM203.279 263.849C203.859 263.849 204.366 263.673 204.8 263.321C205.233 262.97 205.474 262.53 205.521 262.003H207.059C207.029 262.548 206.842 263.066 206.496 263.559C206.15 264.051 205.688 264.443 205.107 264.736C204.533 265.029 203.924 265.176 203.279 265.176C201.984 265.176 200.953 264.745 200.186 263.884C199.424 263.017 199.043 261.833 199.043 260.333V260.061C199.043 259.135 199.213 258.312 199.553 257.591C199.893 256.87 200.379 256.311 201.012 255.912C201.65 255.514 202.403 255.314 203.271 255.314C204.337 255.314 205.222 255.634 205.925 256.272C206.634 256.911 207.012 257.74 207.059 258.76H205.521C205.474 258.145 205.239 257.641 204.817 257.248C204.401 256.85 203.886 256.65 203.271 256.65C202.444 256.65 201.803 256.949 201.346 257.547C200.895 258.139 200.669 258.997 200.669 260.122V260.43C200.669 261.525 200.895 262.369 201.346 262.961C201.797 263.553 202.441 263.849 203.279 263.849ZM212.833 265.176C211.544 265.176 210.495 264.754 209.687 263.91C208.878 263.061 208.474 261.927 208.474 260.509V260.21C208.474 259.267 208.652 258.426 209.01 257.688C209.373 256.943 209.877 256.363 210.521 255.947C211.172 255.525 211.875 255.314 212.631 255.314C213.867 255.314 214.828 255.722 215.514 256.536C216.199 257.351 216.542 258.517 216.542 260.034V260.711H210.1C210.123 261.648 210.396 262.407 210.917 262.987C211.444 263.562 212.112 263.849 212.921 263.849C213.495 263.849 213.981 263.731 214.38 263.497C214.778 263.263 215.127 262.952 215.426 262.565L216.419 263.339C215.622 264.563 214.427 265.176 212.833 265.176ZM212.631 256.65C211.975 256.65 211.424 256.891 210.979 257.371C210.533 257.846 210.258 258.514 210.152 259.375H214.916V259.252C214.869 258.426 214.646 257.787 214.248 257.336C213.85 256.879 213.311 256.65 212.631 256.65ZM223.969 262.478C223.969 262.038 223.802 261.698 223.468 261.458C223.14 261.212 222.562 261.001 221.736 260.825C220.916 260.649 220.263 260.438 219.776 260.192C219.296 259.946 218.938 259.653 218.704 259.313C218.476 258.974 218.361 258.569 218.361 258.101C218.361 257.321 218.689 256.662 219.346 256.123C220.008 255.584 220.852 255.314 221.877 255.314C222.955 255.314 223.828 255.593 224.496 256.149C225.17 256.706 225.507 257.418 225.507 258.285H223.872C223.872 257.84 223.682 257.456 223.301 257.134C222.926 256.812 222.451 256.65 221.877 256.65C221.285 256.65 220.822 256.779 220.488 257.037C220.154 257.295 219.987 257.632 219.987 258.048C219.987 258.44 220.143 258.736 220.453 258.936C220.764 259.135 221.323 259.325 222.132 259.507C222.946 259.688 223.605 259.905 224.109 260.157C224.613 260.409 224.985 260.714 225.226 261.071C225.472 261.423 225.595 261.854 225.595 262.363C225.595 263.213 225.255 263.896 224.575 264.411C223.896 264.921 223.014 265.176 221.93 265.176C221.168 265.176 220.494 265.041 219.908 264.771C219.322 264.502 218.862 264.127 218.528 263.646C218.2 263.16 218.036 262.636 218.036 262.073H219.662C219.691 262.618 219.908 263.052 220.312 263.374C220.723 263.69 221.262 263.849 221.93 263.849C222.545 263.849 223.037 263.726 223.406 263.479C223.781 263.228 223.969 262.894 223.969 262.478ZM240.598 262.759L242.426 255.49H244.052L241.283 265H239.965L237.653 257.793L235.403 265H234.085L231.325 255.49H232.942L234.814 262.609L237.029 255.49H238.339L240.598 262.759ZM245.282 260.157C245.282 259.226 245.464 258.388 245.827 257.644C246.196 256.899 246.706 256.325 247.356 255.921C248.013 255.517 248.76 255.314 249.598 255.314C250.893 255.314 251.938 255.763 252.735 256.659C253.538 257.556 253.939 258.748 253.939 260.236V260.351C253.939 261.276 253.761 262.108 253.403 262.847C253.052 263.579 252.545 264.15 251.883 264.561C251.227 264.971 250.471 265.176 249.615 265.176C248.326 265.176 247.28 264.728 246.478 263.831C245.681 262.935 245.282 261.748 245.282 260.271V260.157ZM246.917 260.351C246.917 261.405 247.16 262.252 247.646 262.891C248.139 263.529 248.795 263.849 249.615 263.849C250.441 263.849 251.098 263.526 251.584 262.882C252.07 262.231 252.313 261.323 252.313 260.157C252.313 259.114 252.064 258.271 251.566 257.626C251.074 256.976 250.418 256.65 249.598 256.65C248.795 256.65 248.147 256.97 247.655 257.608C247.163 258.247 246.917 259.161 246.917 260.351ZM260.575 256.949C260.329 256.908 260.062 256.888 259.775 256.888C258.709 256.888 257.985 257.342 257.604 258.25V265H255.979V255.49H257.561L257.587 256.589C258.12 255.739 258.876 255.314 259.854 255.314C260.171 255.314 260.411 255.355 260.575 255.438V256.949ZM263.845 265H262.219V251.5H263.845V265ZM266.06 260.166C266.06 258.707 266.405 257.535 267.097 256.65C267.788 255.76 268.693 255.314 269.812 255.314C270.926 255.314 271.808 255.695 272.458 256.457V251.5H274.084V265H272.59L272.511 263.98C271.86 264.777 270.955 265.176 269.795 265.176C268.693 265.176 267.794 264.725 267.097 263.822C266.405 262.92 266.06 261.742 266.06 260.289V260.166ZM267.686 260.351C267.686 261.429 267.908 262.272 268.354 262.882C268.799 263.491 269.414 263.796 270.199 263.796C271.23 263.796 271.983 263.333 272.458 262.407V258.039C271.972 257.143 271.225 256.694 270.217 256.694C269.42 256.694 268.799 257.002 268.354 257.617C267.908 258.232 267.686 259.144 267.686 260.351ZM285.035 262.759L286.863 255.49H288.489L285.721 265H284.402L282.091 257.793L279.841 265H278.522L275.763 255.49H277.38L279.252 262.609L281.467 255.49H282.776L285.035 262.759ZM291.917 265H290.291V255.49H291.917V265ZM290.159 252.968C290.159 252.704 290.238 252.481 290.396 252.3C290.561 252.118 290.801 252.027 291.117 252.027C291.434 252.027 291.674 252.118 291.838 252.3C292.002 252.481 292.084 252.704 292.084 252.968C292.084 253.231 292.002 253.451 291.838 253.627C291.674 253.803 291.434 253.891 291.117 253.891C290.801 253.891 290.561 253.803 290.396 253.627C290.238 253.451 290.159 253.231 290.159 252.968ZM294.132 260.166C294.132 258.707 294.478 257.535 295.169 256.65C295.86 255.76 296.766 255.314 297.885 255.314C298.998 255.314 299.88 255.695 300.53 256.457V251.5H302.156V265H300.662L300.583 263.98C299.933 264.777 299.027 265.176 297.867 265.176C296.766 265.176 295.866 264.725 295.169 263.822C294.478 262.92 294.132 261.742 294.132 260.289V260.166ZM295.758 260.351C295.758 261.429 295.98 262.272 296.426 262.882C296.871 263.491 297.486 263.796 298.271 263.796C299.303 263.796 300.056 263.333 300.53 262.407V258.039C300.044 257.143 299.297 256.694 298.289 256.694C297.492 256.694 296.871 257.002 296.426 257.617C295.98 258.232 295.758 259.144 295.758 260.351ZM308.634 265.176C307.345 265.176 306.296 264.754 305.487 263.91C304.679 263.061 304.274 261.927 304.274 260.509V260.21C304.274 259.267 304.453 258.426 304.811 257.688C305.174 256.943 305.678 256.363 306.322 255.947C306.973 255.525 307.676 255.314 308.432 255.314C309.668 255.314 310.629 255.722 311.314 256.536C312 257.351 312.343 258.517 312.343 260.034V260.711H305.9C305.924 261.648 306.196 262.407 306.718 262.987C307.245 263.562 307.913 263.849 308.722 263.849C309.296 263.849 309.782 263.731 310.181 263.497C310.579 263.263 310.928 262.952 311.227 262.565L312.22 263.339C311.423 264.563 310.228 265.176 308.634 265.176ZM308.432 256.65C307.775 256.65 307.225 256.891 306.779 257.371C306.334 257.846 306.059 258.514 305.953 259.375H310.717V259.252C310.67 258.426 310.447 257.787 310.049 257.336C309.65 256.879 309.111 256.65 308.432 256.65ZM314.18 267.549L313.257 266.916C313.808 266.148 314.095 265.357 314.118 264.543V263.075H315.709V264.35C315.709 264.941 315.562 265.533 315.27 266.125C314.982 266.717 314.619 267.191 314.18 267.549ZM26.9971 292H25.3711V282.49H26.9971V292ZM25.2393 279.968C25.2393 279.704 25.3184 279.481 25.4766 279.3C25.6406 279.118 25.8809 279.027 26.1973 279.027C26.5137 279.027 26.7539 279.118 26.918 279.3C27.082 279.481 27.1641 279.704 27.1641 279.968C27.1641 280.231 27.082 280.451 26.918 280.627C26.7539 280.803 26.5137 280.891 26.1973 280.891C25.8809 280.891 25.6406 280.803 25.4766 280.627C25.3184 280.451 25.2393 280.231 25.2393 279.968ZM31.1455 282.49L31.1982 283.686C31.9248 282.771 32.874 282.314 34.0459 282.314C36.0557 282.314 37.0693 283.448 37.0869 285.716V292H35.4609V285.707C35.4551 285.021 35.2969 284.515 34.9863 284.187C34.6816 283.858 34.2041 283.694 33.5537 283.694C33.0264 283.694 32.5635 283.835 32.165 284.116C31.7666 284.397 31.4561 284.767 31.2334 285.224V292H29.6074V282.49H31.1455ZM43.3535 290.849C43.9336 290.849 44.4404 290.673 44.874 290.321C45.3076 289.97 45.5479 289.53 45.5947 289.003H47.1328C47.1035 289.548 46.916 290.066 46.5703 290.559C46.2246 291.051 45.7617 291.443 45.1816 291.736C44.6074 292.029 43.998 292.176 43.3535 292.176C42.0586 292.176 41.0273 291.745 40.2598 290.884C39.498 290.017 39.1172 288.833 39.1172 287.333V287.061C39.1172 286.135 39.2871 285.312 39.627 284.591C39.9668 283.87 40.4531 283.311 41.0859 282.912C41.7246 282.514 42.4775 282.314 43.3447 282.314C44.4111 282.314 45.2959 282.634 45.999 283.272C46.708 283.911 47.0859 284.74 47.1328 285.76H45.5947C45.5479 285.145 45.3135 284.641 44.8916 284.248C44.4756 283.85 43.96 283.65 43.3447 283.65C42.5186 283.65 41.877 283.949 41.4199 284.547C40.9688 285.139 40.7432 285.997 40.7432 287.122V287.43C40.7432 288.525 40.9688 289.369 41.4199 289.961C41.8711 290.553 42.5156 290.849 43.3535 290.849ZM50.7275 292H49.1016V278.5H50.7275V292ZM59.209 291.06C58.5762 291.804 57.6475 292.176 56.4229 292.176C55.4092 292.176 54.6357 291.883 54.1025 291.297C53.5752 290.705 53.3086 289.832 53.3027 288.678V282.49H54.9287V288.634C54.9287 290.075 55.5146 290.796 56.6865 290.796C57.9287 290.796 58.7549 290.333 59.165 289.407V282.49H60.791V292H59.2441L59.209 291.06ZM62.874 287.166C62.874 285.707 63.2197 284.535 63.9111 283.65C64.6025 282.76 65.5078 282.314 66.627 282.314C67.7402 282.314 68.6221 282.695 69.2725 283.457V278.5H70.8984V292H69.4043L69.3252 290.98C68.6748 291.777 67.7695 292.176 66.6094 292.176C65.5078 292.176 64.6084 291.725 63.9111 290.822C63.2197 289.92 62.874 288.742 62.874 287.289V287.166ZM64.5 287.351C64.5 288.429 64.7227 289.272 65.168 289.882C65.6133 290.491 66.2285 290.796 67.0137 290.796C68.0449 290.796 68.7979 290.333 69.2725 289.407V285.039C68.7861 284.143 68.0391 283.694 67.0312 283.694C66.2344 283.694 65.6133 284.002 65.168 284.617C64.7227 285.232 64.5 286.144 64.5 287.351ZM75.1963 292H73.5703V282.49H75.1963V292ZM73.4385 279.968C73.4385 279.704 73.5176 279.481 73.6758 279.3C73.8398 279.118 74.0801 279.027 74.3965 279.027C74.7129 279.027 74.9531 279.118 75.1172 279.3C75.2812 279.481 75.3633 279.704 75.3633 279.968C75.3633 280.231 75.2812 280.451 75.1172 280.627C74.9531 280.803 74.7129 280.891 74.3965 280.891C74.0801 280.891 73.8398 280.803 73.6758 280.627C73.5176 280.451 73.4385 280.231 73.4385 279.968ZM79.3447 282.49L79.3975 283.686C80.124 282.771 81.0732 282.314 82.2451 282.314C84.2549 282.314 85.2686 283.448 85.2861 285.716V292H83.6602V285.707C83.6543 285.021 83.4961 284.515 83.1855 284.187C82.8809 283.858 82.4033 283.694 81.7529 283.694C81.2256 283.694 80.7627 283.835 80.3643 284.116C79.9658 284.397 79.6553 284.767 79.4326 285.224V292H77.8066V282.49H79.3447ZM87.3516 287.166C87.3516 285.684 87.6943 284.506 88.3799 283.633C89.0654 282.754 89.9736 282.314 91.1045 282.314C92.2646 282.314 93.1699 282.725 93.8203 283.545L93.8994 282.49H95.3848V291.771C95.3848 293.002 95.0186 293.972 94.2861 294.681C93.5596 295.39 92.5811 295.744 91.3506 295.744C90.665 295.744 89.9941 295.598 89.3379 295.305C88.6816 295.012 88.1807 294.61 87.835 294.101L88.6787 293.125C89.376 293.986 90.2285 294.417 91.2363 294.417C92.0273 294.417 92.6426 294.194 93.082 293.749C93.5273 293.304 93.75 292.677 93.75 291.868V291.051C93.0996 291.801 92.2119 292.176 91.0869 292.176C89.9736 292.176 89.0713 291.728 88.3799 290.831C87.6943 289.935 87.3516 288.713 87.3516 287.166ZM88.9863 287.351C88.9863 288.423 89.2061 289.267 89.6455 289.882C90.085 290.491 90.7002 290.796 91.4912 290.796C92.5166 290.796 93.2695 290.33 93.75 289.398V285.057C93.252 284.148 92.5049 283.694 91.5088 283.694C90.7178 283.694 90.0996 284.002 89.6543 284.617C89.209 285.232 88.9863 286.144 88.9863 287.351ZM103.84 282.49L103.884 283.545C104.581 282.725 105.521 282.314 106.705 282.314C108.035 282.314 108.94 282.824 109.421 283.844C109.737 283.387 110.147 283.018 110.651 282.736C111.161 282.455 111.762 282.314 112.453 282.314C114.539 282.314 115.6 283.419 115.635 285.628V292H114.009V285.725C114.009 285.045 113.854 284.538 113.543 284.204C113.232 283.864 112.711 283.694 111.979 283.694C111.375 283.694 110.874 283.876 110.476 284.239C110.077 284.597 109.846 285.08 109.781 285.689V292H108.146V285.769C108.146 284.386 107.47 283.694 106.116 283.694C105.05 283.694 104.32 284.148 103.928 285.057V292H102.302V282.49H103.84ZM117.665 287.157C117.665 286.226 117.847 285.388 118.21 284.644C118.579 283.899 119.089 283.325 119.739 282.921C120.396 282.517 121.143 282.314 121.98 282.314C123.275 282.314 124.321 282.763 125.118 283.659C125.921 284.556 126.322 285.748 126.322 287.236V287.351C126.322 288.276 126.144 289.108 125.786 289.847C125.435 290.579 124.928 291.15 124.266 291.561C123.609 291.971 122.854 292.176 121.998 292.176C120.709 292.176 119.663 291.728 118.86 290.831C118.063 289.935 117.665 288.748 117.665 287.271V287.157ZM119.3 287.351C119.3 288.405 119.543 289.252 120.029 289.891C120.521 290.529 121.178 290.849 121.998 290.849C122.824 290.849 123.48 290.526 123.967 289.882C124.453 289.231 124.696 288.323 124.696 287.157C124.696 286.114 124.447 285.271 123.949 284.626C123.457 283.976 122.801 283.65 121.98 283.65C121.178 283.65 120.53 283.97 120.038 284.608C119.546 285.247 119.3 286.161 119.3 287.351ZM136.412 287.351C136.412 288.804 136.078 289.973 135.41 290.857C134.742 291.736 133.846 292.176 132.721 292.176C131.52 292.176 130.591 291.751 129.935 290.901L129.855 292H128.361V278.5H129.987V283.536C130.644 282.722 131.549 282.314 132.703 282.314C133.857 282.314 134.763 282.751 135.419 283.624C136.081 284.497 136.412 285.692 136.412 287.21V287.351ZM134.786 287.166C134.786 286.059 134.572 285.203 134.145 284.6C133.717 283.996 133.102 283.694 132.299 283.694C131.227 283.694 130.456 284.192 129.987 285.188V289.302C130.485 290.298 131.262 290.796 132.316 290.796C133.096 290.796 133.702 290.494 134.136 289.891C134.569 289.287 134.786 288.379 134.786 287.166ZM140.235 292H138.609V282.49H140.235V292ZM138.478 279.968C138.478 279.704 138.557 279.481 138.715 279.3C138.879 279.118 139.119 279.027 139.436 279.027C139.752 279.027 139.992 279.118 140.156 279.3C140.32 279.481 140.402 279.704 140.402 279.968C140.402 280.231 140.32 280.451 140.156 280.627C139.992 280.803 139.752 280.891 139.436 280.891C139.119 280.891 138.879 280.803 138.715 280.627C138.557 280.451 138.478 280.231 138.478 279.968ZM144.612 292H142.986V278.5H144.612V292ZM151.169 292.176C149.88 292.176 148.831 291.754 148.022 290.91C147.214 290.061 146.81 288.927 146.81 287.509V287.21C146.81 286.267 146.988 285.426 147.346 284.688C147.709 283.943 148.213 283.363 148.857 282.947C149.508 282.525 150.211 282.314 150.967 282.314C152.203 282.314 153.164 282.722 153.85 283.536C154.535 284.351 154.878 285.517 154.878 287.034V287.711H148.436C148.459 288.648 148.731 289.407 149.253 289.987C149.78 290.562 150.448 290.849 151.257 290.849C151.831 290.849 152.317 290.731 152.716 290.497C153.114 290.263 153.463 289.952 153.762 289.565L154.755 290.339C153.958 291.563 152.763 292.176 151.169 292.176ZM150.967 283.65C150.311 283.65 149.76 283.891 149.314 284.371C148.869 284.846 148.594 285.514 148.488 286.375H153.252V286.252C153.205 285.426 152.982 284.787 152.584 284.336C152.186 283.879 151.646 283.65 150.967 283.65ZM167.104 292C167.01 291.812 166.934 291.479 166.875 290.998C166.119 291.783 165.217 292.176 164.168 292.176C163.23 292.176 162.46 291.912 161.856 291.385C161.259 290.852 160.96 290.178 160.96 289.363C160.96 288.373 161.335 287.605 162.085 287.061C162.841 286.51 163.901 286.234 165.267 286.234H166.849V285.487C166.849 284.919 166.679 284.468 166.339 284.134C165.999 283.794 165.498 283.624 164.836 283.624C164.256 283.624 163.77 283.771 163.377 284.063C162.984 284.356 162.788 284.711 162.788 285.127H161.153C161.153 284.652 161.32 284.195 161.654 283.756C161.994 283.311 162.451 282.959 163.025 282.701C163.605 282.443 164.241 282.314 164.933 282.314C166.028 282.314 166.887 282.59 167.508 283.141C168.129 283.686 168.451 284.438 168.475 285.399V289.776C168.475 290.649 168.586 291.344 168.809 291.859V292H167.104ZM164.405 290.761C164.915 290.761 165.398 290.629 165.855 290.365C166.312 290.102 166.644 289.759 166.849 289.337V287.386H165.574C163.582 287.386 162.586 287.969 162.586 289.135C162.586 289.645 162.756 290.043 163.096 290.33C163.436 290.617 163.872 290.761 164.405 290.761ZM172.562 282.49L172.614 283.686C173.341 282.771 174.29 282.314 175.462 282.314C177.472 282.314 178.485 283.448 178.503 285.716V292H176.877V285.707C176.871 285.021 176.713 284.515 176.402 284.187C176.098 283.858 175.62 283.694 174.97 283.694C174.442 283.694 173.979 283.835 173.581 284.116C173.183 284.397 172.872 284.767 172.649 285.224V292H171.023V282.49H172.562ZM180.56 287.166C180.56 285.707 180.905 284.535 181.597 283.65C182.288 282.76 183.193 282.314 184.312 282.314C185.426 282.314 186.308 282.695 186.958 283.457V278.5H188.584V292H187.09L187.011 290.98C186.36 291.777 185.455 292.176 184.295 292.176C183.193 292.176 182.294 291.725 181.597 290.822C180.905 289.92 180.56 288.742 180.56 287.289V287.166ZM182.186 287.351C182.186 288.429 182.408 289.272 182.854 289.882C183.299 290.491 183.914 290.796 184.699 290.796C185.73 290.796 186.483 290.333 186.958 289.407V285.039C186.472 284.143 185.725 283.694 184.717 283.694C183.92 283.694 183.299 284.002 182.854 284.617C182.408 285.232 182.186 286.144 182.186 287.351ZM204.325 280.592H200.212V292H198.533V280.592H194.429V279.203H204.325V280.592ZM210.601 289.759L214.257 279.203H216.103L211.356 292H209.862L205.125 279.203H206.962L210.601 289.759ZM221.64 287.166C221.64 285.707 221.985 284.535 222.677 283.65C223.368 282.76 224.273 282.314 225.393 282.314C226.506 282.314 227.388 282.695 228.038 283.457V278.5H229.664V292H228.17L228.091 290.98C227.44 291.777 226.535 292.176 225.375 292.176C224.273 292.176 223.374 291.725 222.677 290.822C221.985 289.92 221.64 288.742 221.64 287.289V287.166ZM223.266 287.351C223.266 288.429 223.488 289.272 223.934 289.882C224.379 290.491 224.994 290.796 225.779 290.796C226.811 290.796 227.563 290.333 228.038 289.407V285.039C227.552 284.143 226.805 283.694 225.797 283.694C225 283.694 224.379 284.002 223.934 284.617C223.488 285.232 223.266 286.144 223.266 287.351ZM236.142 292.176C234.853 292.176 233.804 291.754 232.995 290.91C232.187 290.061 231.782 288.927 231.782 287.509V287.21C231.782 286.267 231.961 285.426 232.318 284.688C232.682 283.943 233.186 283.363 233.83 282.947C234.48 282.525 235.184 282.314 235.939 282.314C237.176 282.314 238.137 282.722 238.822 283.536C239.508 284.351 239.851 285.517 239.851 287.034V287.711H233.408C233.432 288.648 233.704 289.407 234.226 289.987C234.753 290.562 235.421 290.849 236.229 290.849C236.804 290.849 237.29 290.731 237.688 290.497C238.087 290.263 238.436 289.952 238.734 289.565L239.728 290.339C238.931 291.563 237.735 292.176 236.142 292.176ZM235.939 283.65C235.283 283.65 234.732 283.891 234.287 284.371C233.842 284.846 233.566 285.514 233.461 286.375H238.225V286.252C238.178 285.426 237.955 284.787 237.557 284.336C237.158 283.879 236.619 283.65 235.939 283.65ZM244.755 289.794L247.11 282.49H248.771L245.361 292H244.122L240.677 282.49H242.338L244.755 289.794ZM252.103 292H250.477V282.49H252.103V292ZM250.345 279.968C250.345 279.704 250.424 279.481 250.582 279.3C250.746 279.118 250.986 279.027 251.303 279.027C251.619 279.027 251.859 279.118 252.023 279.3C252.188 279.481 252.27 279.704 252.27 279.968C252.27 280.231 252.188 280.451 252.023 280.627C251.859 280.803 251.619 280.891 251.303 280.891C250.986 280.891 250.746 280.803 250.582 280.627C250.424 280.451 250.345 280.231 250.345 279.968ZM258.527 290.849C259.107 290.849 259.614 290.673 260.048 290.321C260.481 289.97 260.722 289.53 260.769 289.003H262.307C262.277 289.548 262.09 290.066 261.744 290.559C261.398 291.051 260.936 291.443 260.355 291.736C259.781 292.029 259.172 292.176 258.527 292.176C257.232 292.176 256.201 291.745 255.434 290.884C254.672 290.017 254.291 288.833 254.291 287.333V287.061C254.291 286.135 254.461 285.312 254.801 284.591C255.141 283.87 255.627 283.311 256.26 282.912C256.898 282.514 257.651 282.314 258.519 282.314C259.585 282.314 260.47 282.634 261.173 283.272C261.882 283.911 262.26 284.74 262.307 285.76H260.769C260.722 285.145 260.487 284.641 260.065 284.248C259.649 283.85 259.134 283.65 258.519 283.65C257.692 283.65 257.051 283.949 256.594 284.547C256.143 285.139 255.917 285.997 255.917 287.122V287.43C255.917 288.525 256.143 289.369 256.594 289.961C257.045 290.553 257.689 290.849 258.527 290.849ZM268.081 292.176C266.792 292.176 265.743 291.754 264.935 290.91C264.126 290.061 263.722 288.927 263.722 287.509V287.21C263.722 286.267 263.9 285.426 264.258 284.688C264.621 283.943 265.125 283.363 265.77 282.947C266.42 282.525 267.123 282.314 267.879 282.314C269.115 282.314 270.076 282.722 270.762 283.536C271.447 284.351 271.79 285.517 271.79 287.034V287.711H265.348C265.371 288.648 265.644 289.407 266.165 289.987C266.692 290.562 267.36 290.849 268.169 290.849C268.743 290.849 269.229 290.731 269.628 290.497C270.026 290.263 270.375 289.952 270.674 289.565L271.667 290.339C270.87 291.563 269.675 292.176 268.081 292.176ZM267.879 283.65C267.223 283.65 266.672 283.891 266.227 284.371C265.781 284.846 265.506 285.514 265.4 286.375H270.164V286.252C270.117 285.426 269.895 284.787 269.496 284.336C269.098 283.879 268.559 283.65 267.879 283.65ZM279.217 289.478C279.217 289.038 279.05 288.698 278.716 288.458C278.388 288.212 277.811 288.001 276.984 287.825C276.164 287.649 275.511 287.438 275.024 287.192C274.544 286.946 274.187 286.653 273.952 286.313C273.724 285.974 273.609 285.569 273.609 285.101C273.609 284.321 273.938 283.662 274.594 283.123C275.256 282.584 276.1 282.314 277.125 282.314C278.203 282.314 279.076 282.593 279.744 283.149C280.418 283.706 280.755 284.418 280.755 285.285H279.12C279.12 284.84 278.93 284.456 278.549 284.134C278.174 283.812 277.699 283.65 277.125 283.65C276.533 283.65 276.07 283.779 275.736 284.037C275.402 284.295 275.235 284.632 275.235 285.048C275.235 285.44 275.391 285.736 275.701 285.936C276.012 286.135 276.571 286.325 277.38 286.507C278.194 286.688 278.854 286.905 279.357 287.157C279.861 287.409 280.233 287.714 280.474 288.071C280.72 288.423 280.843 288.854 280.843 289.363C280.843 290.213 280.503 290.896 279.823 291.411C279.144 291.921 278.262 292.176 277.178 292.176C276.416 292.176 275.742 292.041 275.156 291.771C274.57 291.502 274.11 291.127 273.776 290.646C273.448 290.16 273.284 289.636 273.284 289.073H274.91C274.939 289.618 275.156 290.052 275.561 290.374C275.971 290.69 276.51 290.849 277.178 290.849C277.793 290.849 278.285 290.726 278.654 290.479C279.029 290.228 279.217 289.894 279.217 289.478ZM282.996 291.147C282.996 290.866 283.078 290.632 283.242 290.444C283.412 290.257 283.664 290.163 283.998 290.163C284.332 290.163 284.584 290.257 284.754 290.444C284.93 290.632 285.018 290.866 285.018 291.147C285.018 291.417 284.93 291.643 284.754 291.824C284.584 292.006 284.332 292.097 283.998 292.097C283.664 292.097 283.412 292.006 283.242 291.824C283.078 291.643 282.996 291.417 282.996 291.147Z" fill="#30444E"/>
<path d="M41.9102 156.566C41.9102 158.517 41.5729 160.23 40.8984 161.707C40.224 163.174 39.2578 164.305 38 165.098C36.7513 165.882 35.3112 166.273 33.6797 166.273C32.0664 166.273 30.6263 165.882 29.3594 165.098C28.1016 164.305 27.1263 163.179 26.4336 161.721C25.75 160.262 25.4036 158.581 25.3945 156.676V155.555C25.3945 153.613 25.7363 151.9 26.4199 150.414C27.1126 148.928 28.0833 147.794 29.332 147.01C30.5898 146.217 32.0299 145.82 33.6523 145.82C35.2747 145.82 36.7103 146.212 37.959 146.996C39.2168 147.771 40.1875 148.892 40.8711 150.359C41.5547 151.818 41.901 153.518 41.9102 155.459V156.566ZM38.4512 155.527C38.4512 153.322 38.0319 151.631 37.1934 150.455C36.3639 149.279 35.1836 148.691 33.6523 148.691C32.1576 148.691 30.9863 149.279 30.1387 150.455C29.3001 151.622 28.8717 153.276 28.8535 155.418V156.566C28.8535 158.754 29.2773 160.445 30.125 161.639C30.9818 162.833 32.1667 163.43 33.6797 163.43C35.2109 163.43 36.3867 162.846 37.207 161.68C38.0365 160.513 38.4512 158.809 38.4512 156.566V155.527ZM53.9961 164.551C53.0208 165.699 51.6354 166.273 49.8398 166.273C48.2357 166.273 47.0189 165.804 46.1895 164.865C45.3691 163.926 44.959 162.568 44.959 160.791V151.207H48.2812V160.75C48.2812 162.628 49.0605 163.566 50.6191 163.566C52.2324 163.566 53.3216 162.988 53.8867 161.83V151.207H57.209V166H54.0781L53.9961 164.551ZM68.3379 154.242C67.9004 154.169 67.4492 154.133 66.9844 154.133C65.4622 154.133 64.4368 154.716 63.9082 155.883V166H60.5859V151.207H63.7578L63.8398 152.861C64.6419 151.576 65.7539 150.934 67.1758 150.934C67.6497 150.934 68.0417 150.997 68.3516 151.125L68.3379 154.242ZM91.293 148.883H85.0859V166H81.6543V148.883H75.502V146.094H91.293V148.883ZM98.8809 166.273C96.7754 166.273 95.0664 165.613 93.7539 164.291C92.4505 162.96 91.7988 161.192 91.7988 158.986V158.576C91.7988 157.1 92.0814 155.783 92.6465 154.625C93.2207 153.458 94.0228 152.551 95.0527 151.904C96.0827 151.257 97.2311 150.934 98.498 150.934C100.512 150.934 102.066 151.576 103.16 152.861C104.263 154.146 104.814 155.965 104.814 158.316V159.656H95.1484C95.2487 160.878 95.6543 161.844 96.3652 162.555C97.0853 163.266 97.9876 163.621 99.0723 163.621C100.594 163.621 101.834 163.006 102.791 161.775L104.582 163.484C103.99 164.368 103.197 165.057 102.203 165.549C101.219 166.032 100.111 166.273 98.8809 166.273ZM98.4844 153.6C97.5729 153.6 96.8346 153.919 96.2695 154.557C95.7135 155.195 95.3581 156.083 95.2031 157.223H101.533V156.977C101.46 155.865 101.164 155.026 100.645 154.461C100.125 153.887 99.4049 153.6 98.4844 153.6ZM113.482 163.621C114.312 163.621 115 163.38 115.547 162.896C116.094 162.413 116.385 161.816 116.422 161.105H119.553C119.516 162.026 119.229 162.887 118.691 163.689C118.154 164.482 117.424 165.111 116.504 165.576C115.583 166.041 114.59 166.273 113.523 166.273C111.454 166.273 109.814 165.604 108.602 164.264C107.389 162.924 106.783 161.074 106.783 158.713V158.371C106.783 156.12 107.385 154.32 108.588 152.971C109.791 151.613 111.432 150.934 113.51 150.934C115.269 150.934 116.7 151.449 117.803 152.479C118.915 153.499 119.498 154.844 119.553 156.512H116.422C116.385 155.664 116.094 154.967 115.547 154.42C115.009 153.873 114.321 153.6 113.482 153.6C112.407 153.6 111.577 153.992 110.994 154.775C110.411 155.55 110.115 156.73 110.105 158.316V158.85C110.105 160.454 110.393 161.652 110.967 162.445C111.55 163.229 112.389 163.621 113.482 163.621ZM125.336 152.82C126.421 151.562 127.792 150.934 129.451 150.934C132.605 150.934 134.204 152.734 134.25 156.334V166H130.928V156.457C130.928 155.436 130.704 154.716 130.258 154.297C129.82 153.868 129.173 153.654 128.316 153.654C126.986 153.654 125.992 154.247 125.336 155.432V166H122.014V145H125.336V152.82ZM140.703 151.207L140.799 152.916C141.893 151.594 143.328 150.934 145.105 150.934C148.186 150.934 149.754 152.697 149.809 156.225V166H146.486V156.416C146.486 155.477 146.281 154.785 145.871 154.338C145.47 153.882 144.809 153.654 143.889 153.654C142.549 153.654 141.551 154.26 140.895 155.473V166H137.572V151.207H140.703ZM152.584 158.467C152.584 157.018 152.871 155.714 153.445 154.557C154.02 153.39 154.826 152.497 155.865 151.877C156.904 151.248 158.098 150.934 159.447 150.934C161.443 150.934 163.061 151.576 164.301 152.861C165.549 154.146 166.224 155.851 166.324 157.975L166.338 158.754C166.338 160.212 166.055 161.516 165.49 162.664C164.934 163.812 164.132 164.701 163.084 165.33C162.045 165.959 160.842 166.273 159.475 166.273C157.387 166.273 155.715 165.581 154.457 164.195C153.208 162.801 152.584 160.946 152.584 158.631V158.467ZM155.906 158.754C155.906 160.276 156.221 161.47 156.85 162.336C157.479 163.193 158.354 163.621 159.475 163.621C160.596 163.621 161.466 163.184 162.086 162.309C162.715 161.434 163.029 160.153 163.029 158.467C163.029 156.972 162.706 155.787 162.059 154.912C161.421 154.037 160.55 153.6 159.447 153.6C158.363 153.6 157.501 154.033 156.863 154.898C156.225 155.755 155.906 157.04 155.906 158.754ZM172.682 166H169.359V145H172.682V166ZM175.689 158.467C175.689 157.018 175.977 155.714 176.551 154.557C177.125 153.39 177.932 152.497 178.971 151.877C180.01 151.248 181.204 150.934 182.553 150.934C184.549 150.934 186.167 151.576 187.406 152.861C188.655 154.146 189.329 155.851 189.43 157.975L189.443 158.754C189.443 160.212 189.161 161.516 188.596 162.664C188.04 163.812 187.238 164.701 186.189 165.33C185.15 165.959 183.947 166.273 182.58 166.273C180.493 166.273 178.82 165.581 177.562 164.195C176.314 162.801 175.689 160.946 175.689 158.631V158.467ZM179.012 158.754C179.012 160.276 179.326 161.47 179.955 162.336C180.584 163.193 181.459 163.621 182.58 163.621C183.701 163.621 184.572 163.184 185.191 162.309C185.82 161.434 186.135 160.153 186.135 158.467C186.135 156.972 185.811 155.787 185.164 154.912C184.526 154.037 183.656 153.6 182.553 153.6C181.468 153.6 180.607 154.033 179.969 154.898C179.331 155.755 179.012 157.04 179.012 158.754ZM191.672 158.494C191.672 156.197 192.21 154.365 193.285 152.998C194.37 151.622 195.805 150.934 197.592 150.934C199.278 150.934 200.604 151.521 201.57 152.697L201.721 151.207H204.715V165.549C204.715 167.49 204.109 169.021 202.896 170.143C201.693 171.264 200.066 171.824 198.016 171.824C196.931 171.824 195.869 171.596 194.83 171.141C193.8 170.694 193.016 170.106 192.479 169.377L194.051 167.381C195.072 168.593 196.329 169.199 197.824 169.199C198.927 169.199 199.798 168.898 200.436 168.297C201.074 167.704 201.393 166.829 201.393 165.672V164.674C200.436 165.74 199.16 166.273 197.564 166.273C195.833 166.273 194.415 165.585 193.312 164.209C192.219 162.833 191.672 160.928 191.672 158.494ZM194.98 158.781C194.98 160.267 195.281 161.438 195.883 162.295C196.493 163.143 197.337 163.566 198.412 163.566C199.752 163.566 200.745 162.992 201.393 161.844V155.336C200.764 154.215 199.779 153.654 198.439 153.654C197.346 153.654 196.493 154.087 195.883 154.953C195.281 155.819 194.98 157.095 194.98 158.781ZM213.314 161.242L216.322 151.207H219.863L213.984 168.242C213.082 170.73 211.551 171.975 209.391 171.975C208.908 171.975 208.374 171.893 207.791 171.729V169.158L208.42 169.199C209.258 169.199 209.887 169.044 210.307 168.734C210.735 168.434 211.072 167.923 211.318 167.203L211.797 165.932L206.602 151.207H210.184L213.314 161.242Z" fill="#EE4248"/>
<g filter="url(#filter0_d_1_339)">
<rect x="24" y="315" width="119" height="42" rx="4" fill="#EE4248"/>
<path d="M46.1787 336.823H43.1729V342H41.4766V329.203H45.7129C47.1543 329.203 48.2617 329.531 49.0352 330.188C49.8145 330.844 50.2041 331.799 50.2041 333.053C50.2041 333.85 49.9873 334.544 49.5537 335.136C49.126 335.728 48.5283 336.17 47.7607 336.463L50.7666 341.895V342H48.9561L46.1787 336.823ZM43.1729 335.443H45.7656C46.6035 335.443 47.2686 335.227 47.7607 334.793C48.2588 334.359 48.5078 333.779 48.5078 333.053C48.5078 332.262 48.2705 331.655 47.7959 331.233C47.3271 330.812 46.6475 330.598 45.7568 330.592H43.1729V335.443ZM56.2686 342.176C54.9795 342.176 53.9307 341.754 53.1221 340.91C52.3135 340.061 51.9092 338.927 51.9092 337.509V337.21C51.9092 336.267 52.0879 335.426 52.4453 334.688C52.8086 333.943 53.3125 333.363 53.957 332.947C54.6074 332.525 55.3105 332.314 56.0664 332.314C57.3027 332.314 58.2637 332.722 58.9492 333.536C59.6348 334.351 59.9775 335.517 59.9775 337.034V337.711H53.5352C53.5586 338.648 53.8311 339.407 54.3525 339.987C54.8799 340.562 55.5479 340.849 56.3564 340.849C56.9307 340.849 57.417 340.731 57.8154 340.497C58.2139 340.263 58.5625 339.952 58.8613 339.565L59.8545 340.339C59.0576 341.563 57.8623 342.176 56.2686 342.176ZM56.0664 333.65C55.4102 333.65 54.8594 333.891 54.4141 334.371C53.9688 334.846 53.6934 335.514 53.5879 336.375H58.3516V336.252C58.3047 335.426 58.082 334.787 57.6836 334.336C57.2852 333.879 56.7461 333.65 56.0664 333.65ZM67.7383 342C67.6445 341.812 67.5684 341.479 67.5098 340.998C66.7539 341.783 65.8516 342.176 64.8027 342.176C63.8652 342.176 63.0947 341.912 62.4912 341.385C61.8936 340.852 61.5947 340.178 61.5947 339.363C61.5947 338.373 61.9697 337.605 62.7197 337.061C63.4756 336.51 64.5361 336.234 65.9014 336.234H67.4834V335.487C67.4834 334.919 67.3135 334.468 66.9736 334.134C66.6338 333.794 66.1328 333.624 65.4707 333.624C64.8906 333.624 64.4043 333.771 64.0117 334.063C63.6191 334.356 63.4229 334.711 63.4229 335.127H61.7881C61.7881 334.652 61.9551 334.195 62.2891 333.756C62.6289 333.311 63.0859 332.959 63.6602 332.701C64.2402 332.443 64.876 332.314 65.5674 332.314C66.6631 332.314 67.5215 332.59 68.1426 333.141C68.7637 333.686 69.0859 334.438 69.1094 335.399V339.776C69.1094 340.649 69.2207 341.344 69.4434 341.859V342H67.7383ZM65.04 340.761C65.5498 340.761 66.0332 340.629 66.4902 340.365C66.9473 340.102 67.2783 339.759 67.4834 339.337V337.386H66.209C64.2168 337.386 63.2207 337.969 63.2207 339.135C63.2207 339.645 63.3906 340.043 63.7305 340.33C64.0703 340.617 64.5068 340.761 65.04 340.761ZM71.2627 337.166C71.2627 335.707 71.6084 334.535 72.2998 333.65C72.9912 332.76 73.8965 332.314 75.0156 332.314C76.1289 332.314 77.0107 332.695 77.6611 333.457V328.5H79.2871V342H77.793L77.7139 340.98C77.0635 341.777 76.1582 342.176 74.998 342.176C73.8965 342.176 72.9971 341.725 72.2998 340.822C71.6084 339.92 71.2627 338.742 71.2627 337.289V337.166ZM72.8887 337.351C72.8887 338.429 73.1113 339.272 73.5566 339.882C74.002 340.491 74.6172 340.796 75.4023 340.796C76.4336 340.796 77.1865 340.333 77.6611 339.407V335.039C77.1748 334.143 76.4277 333.694 75.4199 333.694C74.623 333.694 74.002 334.002 73.5566 334.617C73.1113 335.232 72.8887 336.144 72.8887 337.351ZM88.7178 329.203L92.9014 339.645L97.085 329.203H99.2734V342H97.5859V337.017L97.7441 331.638L93.543 342H92.251L88.0586 331.664L88.2256 337.017V342H86.5381V329.203H88.7178ZM101.567 337.157C101.567 336.226 101.749 335.388 102.112 334.644C102.481 333.899 102.991 333.325 103.642 332.921C104.298 332.517 105.045 332.314 105.883 332.314C107.178 332.314 108.224 332.763 109.021 333.659C109.823 334.556 110.225 335.748 110.225 337.236V337.351C110.225 338.276 110.046 339.108 109.688 339.847C109.337 340.579 108.83 341.15 108.168 341.561C107.512 341.971 106.756 342.176 105.9 342.176C104.611 342.176 103.565 341.728 102.763 340.831C101.966 339.935 101.567 338.748 101.567 337.271V337.157ZM103.202 337.351C103.202 338.405 103.445 339.252 103.932 339.891C104.424 340.529 105.08 340.849 105.9 340.849C106.727 340.849 107.383 340.526 107.869 339.882C108.355 339.231 108.599 338.323 108.599 337.157C108.599 336.114 108.35 335.271 107.852 334.626C107.359 333.976 106.703 333.65 105.883 333.65C105.08 333.65 104.433 333.97 103.94 334.608C103.448 335.247 103.202 336.161 103.202 337.351ZM116.86 333.949C116.614 333.908 116.348 333.888 116.061 333.888C114.994 333.888 114.271 334.342 113.89 335.25V342H112.264V332.49H113.846L113.872 333.589C114.405 332.739 115.161 332.314 116.14 332.314C116.456 332.314 116.696 332.355 116.86 332.438V333.949ZM122.134 342.176C120.845 342.176 119.796 341.754 118.987 340.91C118.179 340.061 117.774 338.927 117.774 337.509V337.21C117.774 336.267 117.953 335.426 118.311 334.688C118.674 333.943 119.178 333.363 119.822 332.947C120.473 332.525 121.176 332.314 121.932 332.314C123.168 332.314 124.129 332.722 124.814 333.536C125.5 334.351 125.843 335.517 125.843 337.034V337.711H119.4C119.424 338.648 119.696 339.407 120.218 339.987C120.745 340.562 121.413 340.849 122.222 340.849C122.796 340.849 123.282 340.731 123.681 340.497C124.079 340.263 124.428 339.952 124.727 339.565L125.72 340.339C124.923 341.563 123.728 342.176 122.134 342.176ZM121.932 333.65C121.275 333.65 120.725 333.891 120.279 334.371C119.834 334.846 119.559 335.514 119.453 336.375H124.217V336.252C124.17 335.426 123.947 334.787 123.549 334.336C123.15 333.879 122.611 333.65 121.932 333.65Z" fill="white"/>
</g>
<path d="M46.2695 112.425C65.4833 112.425 78.6778 122.378 87.9361 122.378C97.1945 122.378 116.639 117.056 116.639 74.4639C116.639 31.8722 90.4806 25.6194 80.2972 25.6194C32.6111 25.6194 12.2417 112.425 46.2695 112.425Z" fill="#EFEFEF"/>
<path d="M111.801 45.3403L113.765 43.3761L117.693 47.3045L115.729 49.2686L111.801 45.3403Z" fill="#A4AFC1"/>
<path d="M100.508 34.0458L102.472 32.0817L106.4 36.01L104.436 37.9742L100.508 34.0458Z" fill="#A4AFC1"/>
<path d="M111.802 36.5027L115.73 32.5743L117.694 34.5385L113.766 38.4669L111.802 36.5027Z" fill="#A4AFC1"/>
<path d="M77.861 96.9166C77.861 96.9166 78.5416 101.819 81.9722 105.25H82.0277H63.9722C67.4444 101.778 68.0833 96.9166 68.0833 96.9166H77.861Z" fill="#EE4248"/>
<path d="M101.472 53.8611C103 53.8611 104.25 55.1111 104.25 56.6389V87.1945H41.75V56.6389C41.75 55.1111 43 53.8611 44.5278 53.8611H101.472Z" fill="#F3F3F1"/>
<path d="M44.5278 96.9167H101.472C103.006 96.9167 104.25 95.6722 104.25 94.1389V87.1945H41.75V94.1389C41.75 95.6722 42.9944 96.9167 44.5278 96.9167Z" fill="#EE4248"/>
<path d="M92.4445 63.5833C96.6634 63.5833 100.083 60.1633 100.083 55.9444C100.083 51.7256 96.6634 48.3055 92.4445 48.3055C88.2257 48.3055 84.8057 51.7256 84.8057 55.9444C84.8057 60.1633 88.2257 63.5833 92.4445 63.5833Z" fill="#EE4248"/>
<path d="M55.7889 80.25C52.6306 80.25 50.0834 77.8306 50.0834 74.8333C50.0834 71.8361 52.6334 69.4167 55.7889 69.4167H55.8917C56.5 65.325 60.1917 62.1945 64.6667 62.1945C68.2167 62.1945 71.2862 64.1695 72.6945 67.0333C76.3584 67.225 79.2501 70.1028 79.2501 73.6306C79.2501 77.2889 76.1306 80.25 72.2751 80.25H55.7889Z" fill="#EE4248"/>
<path d="M68.0833 96.9166C68.0833 96.9166 67.4444 101.778 63.9722 105.25H70.2222C73.6944 101.778 74.3333 96.9166 74.3333 96.9166H68.0833Z" fill="#EE4248"/>
<path d="M48 94.1389V87.1945H41.75V94.1389C41.75 95.6722 42.9944 96.9167 44.5278 96.9167H50.7778C49.2444 96.9167 48 95.6722 48 94.1389Z" fill="#EE4248"/>
<path d="M91.0557 55.9444C91.0557 52.8417 92.914 50.1833 95.5696 48.9889C94.614 48.5583 93.5612 48.3055 92.4446 48.3055C88.2251 48.3055 84.8057 51.725 84.8057 55.9444C84.8057 60.1639 88.2251 63.5833 92.4446 63.5833C93.5612 63.5833 94.614 63.3305 95.5696 62.9C92.914 61.7055 91.0557 59.0472 91.0557 55.9444Z" fill="#EE4248"/>
<path d="M56.3334 74.8333C56.3334 71.8361 58.8834 69.4167 62.0389 69.4167H62.1417C62.6 66.3417 64.7973 63.8111 67.7612 62.7417C66.7945 62.4 65.7584 62.1945 64.6667 62.1945C60.1889 62.1945 56.5 65.325 55.8917 69.4167H55.7889C52.6306 69.4167 50.0834 71.8361 50.0834 74.8333C50.0834 77.8306 52.6334 80.25 55.7889 80.25H62.0389C58.8834 80.25 56.3334 77.8306 56.3334 74.8333Z" fill="#EE4248"/>
<path d="M50.7778 53.8611H44.5278C43 53.8611 41.75 55.1111 41.75 56.6389V87.1945H48V56.6389C48 55.1111 49.25 53.8611 50.7778 53.8611Z" fill="#D5DBE1"/>
<path d="M101.472 99H44.5277C41.8472 99 39.6666 96.8195 39.6666 94.1389V56.6389C39.6666 53.9583 41.8472 51.7778 44.5277 51.7778H73V55.9444H44.5277C44.15 55.9444 43.8333 56.2611 43.8333 56.6389V94.1389C43.8333 94.5167 44.15 94.8333 44.5277 94.8333H101.472C101.85 94.8333 102.167 94.5167 102.167 94.1389V71.2222H106.333V94.1389C106.333 96.8195 104.153 99 101.472 99Z" fill="black"/>
<path d="M41.75 85.1111H104.25V89.2777H41.75V85.1111Z" fill="black"/>
<path d="M82.0277 107.333H63.9721C63.1277 107.333 62.3694 106.825 62.0471 106.047C61.7277 105.269 61.9027 104.372 62.4999 103.778C65.4055 100.872 66.0166 96.6806 66.0221 96.6389L70.1499 97.1889C70.1305 97.3528 69.7416 100.15 68.086 103.167H77.8694C76.2277 100.167 75.8221 97.3667 75.7971 97.2056L79.9221 96.625C79.9305 96.6667 80.5416 100.678 83.2166 103.539C83.7583 103.917 84.111 104.542 84.111 105.25C84.111 106.4 83.1777 107.333 82.0277 107.333Z" fill="black"/>
<path d="M92.4444 65.6667C87.0833 65.6667 82.7222 61.3056 82.7222 55.9445C82.7222 50.5833 87.0833 46.2222 92.4444 46.2222C97.8055 46.2222 102.167 50.5833 102.167 55.9445C102.167 61.3056 97.8055 65.6667 92.4444 65.6667ZM92.4444 50.3889C89.3805 50.3889 86.8888 52.8806 86.8888 55.9445C86.8888 59.0083 89.3805 61.5 92.4444 61.5C95.5083 61.5 98 59.0083 98 55.9445C98 52.8806 95.5083 50.3889 92.4444 50.3889Z" fill="black"/>
<path d="M90.3611 61.5H94.5277V71.2222H90.3611V61.5Z" fill="black"/>
<path d="M90.3611 40.6667H94.5277V50.3889H90.3611V40.6667Z" fill="black"/>
<path d="M96.2604 51.2522L105.129 46.506L107.095 50.1786L98.2257 54.9248L96.2604 51.2522Z" fill="black"/>
<path d="M77.8456 61.6523L86.7145 56.9061L88.6799 60.5786L79.8109 65.3249L77.8456 61.6523Z" fill="black"/>
<path d="M77.8517 50.2177L79.817 46.5451L88.686 51.2914L86.7207 54.9639L77.8517 50.2177Z" fill="black"/>
<path d="M96.2767 60.6083L98.2421 56.9358L107.111 61.682L105.146 65.3545L96.2767 60.6083Z" fill="black"/>
<path d="M72.2778 82.3333H55.7778C51.4889 82.3333 48 78.9694 48 74.8333C48 71.2139 50.6722 68.1861 54.2111 67.4833C55.6139 63.1833 59.8417 60.1111 64.6667 60.1111C67.7389 60.1111 70.6805 61.35 72.7333 63.5111L69.7111 66.3805C68.4417 65.0444 66.6028 64.2778 64.6667 64.2778C61.3 64.2778 58.4139 66.6194 57.95 69.725C57.7944 70.7444 56.9194 71.5 55.8889 71.5C53.7861 71.5 52.1667 72.9944 52.1667 74.8333C52.1667 76.6722 53.7861 78.1666 55.7778 78.1666H72.2778C74.975 78.1666 77.1667 76.1361 77.1667 73.6389C77.1667 73.2639 77.1278 72.9611 77.05 72.6778L81.0583 71.5444C81.2444 72.1972 81.3333 72.8833 81.3333 73.6389C81.3333 78.4333 77.2722 82.3333 72.2778 82.3333Z" fill="black"/>
<defs>
<filter id="filter0_d_1_339" x="23" y="314" width="123" height="46" filterUnits="userSpaceOnUse" color-interpolation-filters="sRGB">
<feFlood flood-opacity="0" result="BackgroundImageFix"/>
<feColorMatrix in="SourceAlpha" type="matrix" values="0 0 0 0 0 0 0 0 0 0 0 0 0 0 0 0 0 0 127 0" result="hardAlpha"/>
<feOffset dx="1" dy="1"/>
<feGaussianBlur stdDeviation="1"/>
<feColorMatrix type="matrix" values="0 0 0 0 0 0 0 0 0 0 0 0 0 0 0 0 0 0 0.25 0"/>
<feBlend mode="normal" in2="BackgroundImageFix" result="effect1_dropShadow_1_339"/>
<feBlend mode="normal" in="SourceGraphic" in2="effect1_dropShadow_1_339" result="shape"/>
</filter>
</defs>
</svg>
